<?xml version="1.0" encoding="utf-8"?>
<!-- Generator: Adobe Illustrator 19.1.0, SVG Export Plug-In . SVG Version: 6.00 Build 0)  -->
<svg version="1.1" id="Layer_1" xmlns="http://www.w3.org/2000/svg" xmlns:xlink="http://www.w3.org/1999/xlink" x="0px" y="0px"
	 viewBox="0 0 264.4 155.8" style="enable-background:new 0 0 264.4 155.8;" xml:space="preserve">
<path d="M129.8,124.8c-0.2,0.2-0.3,0.3-0.3,0.4c-0.3,0.9-0.8,1.8-1.4,2.5c-0.3,0.3-0.5,0.7-0.7,1.1c-0.5,1.2-1.2,2.2-1.7,3.3
	c-0.7,1.3-1,2.7-1.7,4c-0.4,0.8-0.9,1.5-1.3,2.3c-0.3,0.6-0.5,1.1-0.8,1.7c-0.4,0.9-0.8,1.8-1.3,2.6c-0.7,1.3-1.4,2.5-2,3.8
	c-0.2,0.3-0.4,0.5-0.8,0.5c-0.2,0-0.4,0-0.5,0c-1-0.1-2-0.3-3-0.3c-0.9,0-1.5-0.6-2.3-0.8c-1.6-0.5-2.3-1.9-2.9-3.2
	c-0.3-0.6-0.3-1.4-0.3-2.1c0-1.2,0-2.3,0.3-3.5c0.5-1.8,0.8-3.5,1.1-5.3c0.2-1.1,0.4-2.2,0.6-3.3c0.1-0.4-0.2-0.7-0.5-0.6
	c-0.9,0.4-1.8,0-2.7,0.1c-1.6,0.2-3.3,0.3-5,0.4c-0.3,0-0.7-0.1-1-0.1c-0.8,0-1.6,0.1-2.4,0.2c-0.1,1-0.1,2-0.2,3
	c-0.1,1.5-0.2,2.9-0.6,4.4c0,0.1-0.1,0.3-0.1,0.4c0.1,1.2-0.7,2.1-1.3,3c-0.5,0.7-0.9,1.4-1.5,2.1c-0.6,0.7-1.2,1.3-1.8,1.9
	c-0.5,0.5-1,0.9-1.5,1.4c-1.3,1.3-2.9,2.1-4.4,3.1c-0.9,0.5-1.9,0.6-2.8,0.8c-1.9,0.4-3.7,0-5.6-0.1c-1-0.1-1.6-0.8-2.3-1.3
	c-0.8-0.6-1.4-1.5-1.7-2.6c-0.3-1-0.7-1.9-0.5-3c0.2-1.2,0.5-2.4,0.7-3.7c0.3-1.2,0.5-2.5,0.8-3.7c0.1-0.4,0.3-0.8,0.4-1.3
	c0.1-0.4,0.4-0.8,0.4-1.3c0.2-1.1,0.8-1.9,1.4-2.7c0.9-1,1.8-2,2.8-2.9c0.7-0.6,1.4-1.2,2.3-1.6c0.4-0.1,0.7-0.4,1-0.6
	c0.6-0.3,1.1-0.6,1.7-0.8c0.5-0.2,0.8-0.4,0.8-1c0-0.5,0.1-1,0.4-1.4c0.5-1.1,1.5-1.6,2.5-1.6c2.4-0.1,4.9-0.1,7.3-0.1
	c1.6,0,3.3,0.1,4.9,0.1c0.4,0,0.7,0.1,1.1,0.1c0.9,0.1,1.7,0.2,2.6,0.2c0.5,0,1,0,1.4-0.1c1.2-0.2,2.4,0,3.5-0.5
	c0.2-0.1,0.4-0.1,0.4-0.2c0.2-0.5,0.4,0,0.6,0c0-0.2,0-0.5,0.1-0.7c0.8-1.5,1.1-3.1,1.4-4.7c0.3-1.5,0.6-3,0.8-4.5
	c0-0.2,0-0.4,0.1-0.5c0.6-1.6,0.8-3.3,1.3-5c0.2-0.7,0.2-1.4,0.4-2c0.2-0.8,0.5-1.6,0.8-2.3c0.3-0.6,0.8-1,1.5-0.8
	c0.2,0,0.5,0,0.7,0c0.6,0.1,1.2,0.2,1.6,0.9c0.4,0.8,1.1,1.3,2,1.4c0.9,0.2,1.7,0.6,2.1,1.5c0.2,0.3,0.3,0.7,0.3,1
	c0,0.7-0.2,1.4-0.3,2c0,0.2-0.1,0.4-0.1,0.5c0.1,1,0,2-0.1,2.9c-0.1,1.3-0.3,2.5-0.5,3.7c-0.1,0.9-0.2,1.8-0.3,2.8
	c0.8-0.2,1-0.8,1.5-1.2c1.2-1,1.9-2.3,2.6-3.7c0.8-1.5,1.6-2.9,2.8-4.1c0.2-0.2,0.5-0.4,0.8-0.6c0.9-0.6,1.7-1.2,2.8-1.5
	c0.2-0.1,0.4-0.2,0.6-0.2c1,0.1,2.1,0.2,3.1,0.4c0.2,0,0.4,0.2,0.7,0.3c0.9,0.1,1.4,0.8,1.9,1.5c0.9,1,1.1,2.2,1.4,3.4
	c0.4,1.4,0.5,2.7,0.5,4.2c0,0.6,0.1,1.2,0.2,2.1c0.3-0.3,0.4-0.4,0.5-0.5c0.6-2.6,1.3-5.3,1.8-7.9c0.3-1.2,0.5-2.5,0.7-3.8
	c0.2-1.1,0.4-2.2,0.7-3.2c0.3-0.9,0.7-1.9,1-2.8c0.6-1.5,1.1-3.1,1.7-4.6c0.4-1.1,0.9-2.1,1.3-3.1c0.6-1.4,1.1-2.9,1.7-4.3
	c0.5-1.1,1.1-2.2,1.6-3.3c0.2-0.4,0.5-0.8,0.6-1.3c0.3-1.1,1.2-1.6,1.9-2.3c0.8-0.8,1.9-0.9,3-1.1c0.9-0.2,1.7,0.1,2.5,0.6
	c0.5,0.4,1.1,0.6,1.8,0.7c0.4,0,0.9,0.2,1.2,0.4c0.6,0.4,0.7,1,0.6,1.8c-0.3,2.2-1.2,4.2-2,6.3c-0.8,2-1.6,4-2.1,6.1
	c-0.6,2.2-1.4,4.5-2,6.7c-0.3,1.1-0.4,2.4-0.6,3.5c-0.1,0.3-0.2,0.6-0.3,0.8c-0.3,1-0.8,1.9-0.8,3c0,0.6-0.3,1.3-0.5,1.9
	c-0.4,1.7-0.9,3.4-1.3,5.1c-0.1,0.4-0.1,0.8-0.2,1.1c-0.3,1.1-0.6,2.2-0.8,3.3c-0.3,1.1-0.5,2.2-0.8,3.3c-0.2,0.8-0.5,1.6-0.8,2.4
	c-0.5,1.4-1.1,2.8-1.7,4.2c-0.2,0.6-0.4,1.2-0.6,1.8c-0.1,0.4-0.4,0.7-0.5,1c-0.5,1.4-0.9,2.8-1.3,4.2c-0.3,1-0.8,1.9-1.1,2.9
	c-0.4,1.2-1.1,2.1-1.6,3.2c-0.2,0.4-0.6,0.7-0.9,1.1c-0.9,0.9-1.7,1.9-2.6,2.6c-0.9,0.6-2,1-3.1,0.9c-0.3,0-0.6-0.2-0.9-0.4
	c-1-0.7-2-1.3-3-2.1c-0.7-0.6-1.3-1.4-2-2.1c-0.4-0.4-0.8-0.8-1-1.2c-0.4-0.7-0.7-1.4-1-2.1c-0.5-1.2-0.5-2.6-0.7-3.8
	c-0.2-0.8-0.3-1.6-0.4-2.5c-0.1-1.1-0.2-2.2-0.3-3.3c-0.1-0.6-0.2-1.1-0.2-1.7c0-0.5,0-1,0-1.4C129.9,125.3,129.8,125.2,129.8,124.8
	z M82.9,141.7c0.4-0.3,0.6-0.4,0.8-0.6c1-1.2,1.9-2.4,3-3.6c0.8-0.9,0.9-2.1,1.4-3.1c0.1-0.2,0-0.6,0.1-0.8c-0.7,0-0.9,0.6-1.3,0.9
	c-0.7,0.6-1.5,1.2-2.1,2c-0.1,0.1-0.3,0.2-0.4,0.3c-0.3,0.2-0.6,0.4-0.8,0.7c-0.6,0.9-0.9,1.9-0.9,3
	C82.6,140.9,82.8,141.2,82.9,141.7z"/>
<path d="M208.9,121.2c-0.1,1.2,0.3,2.1,0.8,3c0.2,0.4,0.5,0.8,0.7,1.1c1,1.6,2,3.3,2.9,4.9c0.2,0.4,0.3,0.9,0.5,1.3
	c0.2,0.4,0.5,0.7,0.7,1c1.3,1.6,2.7,3.2,4.3,4.5c0.9,0.7,1.9,1.2,3,1.6c0.9,0.3,1.8,0.4,2.6,0.8c0.8,0.4,1.6,0.8,2.6,0.8
	c0.2,0,0.4,0.2,0.6,0.3c0.8,0.3,1,1,0.6,1.7c-0.3,0.7-0.7,1.1-1.4,1.4c-0.6,0.3-1.1,0.8-1.6,1.3c-0.9,0.7-1.9,0.8-3,0.9
	c-1.6,0-3.1-0.3-4.6-0.5c-1.1-0.1-2.3-0.4-3.4-0.7c-0.1,0-0.1,0-0.2-0.1c-1-0.7-2-1.4-3-2c-0.1-0.1-0.2-0.2-0.4-0.3
	c-0.7-0.1-1-0.7-1.5-1.2c-0.1-0.1-0.2-0.2-0.3-0.2c-1.6-1.1-2.9-2.4-4.2-3.8c-0.8-0.9-1.6-1.8-2.1-3c-0.3-0.7-0.8-1.3-1.1-1.9
	c-0.2-0.4-0.3-0.8-0.5-1.1c-0.3-0.7-0.7-1.4-1-2.2c-0.1-0.3-0.2-0.5-0.4-0.8c-0.1-0.2-0.2-0.4-0.3-0.7c-0.2,0.7-0.3,1.1-0.4,1.6
	c-0.4,1.4-0.8,2.7-1.2,4.1c-0.4,1.4-0.8,2.8-1.3,4.2c-0.2,0.7-0.7,1.3-1,2c-0.6,1-1.1,2-1.7,3c-0.3,0.5-0.7,0.9-1.1,1.3
	c-0.5,0.7-0.9,1.5-1.5,2.1c-0.7,0.8-1.4,1.6-2.4,2.1c-0.1,0-0.2,0-0.3,0.1c-0.7,0.7-1.6,1-2.6,1c-0.9,0-1.8-0.1-2.5-0.8
	c-0.3-0.3-0.6-0.6-1-0.9c0-0.5,0.1-1.2,0.1-1.9c0-0.7,0.1-1.4,0.2-2c0.1-0.4,0.2-0.7,0.4-1.1c0.3-0.7,0.7-1.4,1-2.1
	c0.2-0.3,0.2-0.7,0.3-1.1c0.4-1,0.8-2.1,1.3-3c1-1.9,1.5-4,2.4-5.9c0.7-1.4,1.1-2.9,1.6-4.5c0.2-0.6,0.5-1.1,0.7-1.7
	c0.1-0.2,0.1-0.5,0.1-0.8c0-0.2,0.1-0.3,0.1-0.4c0.1-0.2,0.2-0.4,0.3-0.6c0.5-1.7,1.1-3.4,1.6-5.1c0.3-1,0.4-2,0.7-2.9
	c0.3-0.9,0.3-1.9,0.6-2.8c0.4-1.4,0.9-2.7,1.4-4c0.1-0.2,0.1-0.4,0.1-0.6c0.1-0.4,0.2-0.8,0.3-1.2c0.1-0.4,0.2-0.9,0.3-1.3
	c0.1-0.5,0.2-1,0.4-1.6c0.4-1.4,0.7-2.8,1.1-4.2c0.2-0.9,0.5-1.7,0.7-2.6c0.3-1.6,1.2-3,2-4.4c0.6-1,1.5-1.8,2.2-2.7
	c0.2-0.3,0.6-0.4,0.8-0.7c1.3-1.3,2.8-2.3,4.5-3c0.5-0.2,0.8-0.6,1.3-0.8c1.3-0.5,2.5-1.2,3.9-1.4c0.4-0.1,0.8-0.2,1.2-0.4
	c0.5-0.3,1-0.3,1.6-0.2c1.7,0.5,3.3,1.2,4.7,2.2c2.1,1.6,3.6,3.6,4.2,6.2c0.3,1.3,0.5,2.6,0.6,3.9c0,0.6,0.2,1.1,0.2,1.7
	c0,0.9,0.1,1.7-0.1,2.6c-0.2,1.1-0.5,2.2-0.9,3.3c-0.3,1.1-0.8,2.1-1.2,3.2c-0.5,1.3-0.8,2.6-1.4,3.8c-0.7,1.5-1.6,2.9-2.4,4.4
	c-0.2,0.3-0.4,0.7-0.6,1c-1.3,1.8-2.7,3.5-4.6,4.7c-0.4,0.3-1,0.4-1.2,1c0,0.1-0.4,0-0.5,0.1c-1.1,0.3-2.1,0.7-3.1,1
	C209.1,121.1,209,121.2,208.9,121.2z M212.8,88.7c-1.4,0.6-2.4,1.7-3.2,2.9c-1.1,1.7-2,3.5-2.7,5.4c-0.1,0.4-0.4,0.8-0.5,1.2
	c-0.4,1.7-0.8,3.3-1.3,5c-0.4,1.3-0.9,2.6-1.3,4c-0.1,0.3-0.1,0.6-0.2,0.9c-0.2,0.6-0.5,1.2-0.7,1.8c-0.1,0.5-0.2,1-0.3,1.5
	c1.1-0.3,2-0.6,2.8-1.1c1.4-0.8,2.8-1.6,3.8-2.9c0.3-0.4,0.7-0.8,0.9-1.2c0.3-0.5,0.6-1.2,1-1.6c0.7-0.8,1-1.8,1.3-2.8
	c0.2-0.7,0.4-1.4,0.5-2.1c0.4-2,0.8-4,1.2-6c0.1-0.6,0.2-1.1,0.2-1.7c0.2-1.4,0.1-2.7-1.4-3.4C212.9,88.7,212.9,88.7,212.8,88.7z"/>
<path d="M39,122.4c-0.1,0.5-0.1,1.1-0.2,1.6c-0.3,1.6-0.7,3.2-1.8,4.5c-0.7,0.8-1.3,1.7-2.3,2.2c-0.3,0.1-0.5,0.3-0.8,0.4
	c-1,0.3-2.1,0.6-3.1,0.8c-1.1,0.3-2.2,0.5-3.3,0.8c-1.3,0.3-2.5,0.6-3.8,1c-0.1,0-0.2,0.1-0.2,0.1c-0.8-0.2-1.6,0.2-2.3,0.4
	c-0.5,0.1-0.7,0.4-0.9,0.8c-0.5,1.3-1.1,2.6-1.6,3.9c-0.7,1.8-1.3,3.7-2,5.5c-0.5,1.4-1,2.9-1.3,4.4c-0.1,0.4-0.2,0.9-0.4,1.3
	c-0.6,1.2-1.2,2.5-1.9,3.6c-0.4,0.6-1,1.2-1.5,1.7c-0.3,0.4-0.8,0.5-1.3,0.4c-0.5-0.1-1.1-0.2-1.6-0.4c-1.2-0.5-1.8-1.6-2.2-2.7
	c-0.2-0.8-0.3-1.6-0.2-2.5c0.1-1,0.1-2,0.2-3c0.1-0.7,0.3-1.4,0.4-2.1c0.1-0.6,0.2-1.2,0.3-1.8c0.1-0.3,0.1-0.6,0.2-0.9
	c0.2-1.9,1.1-3.7,1.6-5.6c0.2-0.9,0.4-1.8,0.6-2.7c0.2-0.8,0.1-0.9-0.7-1.1c-1.5-0.3-2.9-0.8-4.2-1.5c-0.6-0.3-1.2-0.6-1.8-0.8
	c-1.4-0.6-2.2-1.7-2.5-3.2c0-0.2-0.2-0.4-0.2-0.6c0-0.1-0.1-0.2-0.1-0.3c0.1-1.1,0.1-2.1,0.2-3.2c0.1-1.5,0.9-2.5,2.2-3.2
	c0.2-0.1,0.3-0.1,0.5-0.1c1,0,1.9-0.1,3,0.3c0.8,0.3,1.8,0.6,2.8,0.4c0.2,0,0.5,0.1,0.7,0.1c1.2,0.4,2.4,0.4,3.7,0.3
	c0.7,0,1-0.4,1.3-1c0.6-1.3,1.1-2.5,1.7-3.8c0.3-0.7,0.6-1.5,0.8-2.2c0.4-1.4,1-2.7,1.3-4.1c0.3-1.5,0.7-2.9,1-4.4
	c0.2-1.3,0.3-2.7,0.7-4c0.3-1.2,0.4-2.5,1.1-3.6c0.4-0.7,0.5-1.6,0.7-2.4c0.2-0.9,0.8-1.6,1.5-2.2c0.6-0.5,1.2-1,1.8-1.5
	c0.1-0.1,0.3-0.2,0.3-0.4c0.1-0.4,0.5-0.5,0.8-0.6c1.5-0.5,3.1-0.7,4.7-1c1.2-0.2,2.4-0.3,3.6-0.3c0.6,0,1.1-0.1,1.7-0.2
	c1-0.2,2-0.3,3-0.5c1.2-0.2,2.4-0.3,3.6-0.5c2.2-0.4,4.4-0.6,6.6-0.7c1,0,2-0.2,2.9-0.4c0.4-0.1,0.9-0.1,1.3-0.1
	c1.3-0.2,2.6-0.4,4-0.6c1.5-0.2,2.9,0.1,4,1.4c0.7,0.9,1.3,1.8,1.8,2.8c0.1,0.3,0.2,0.7,0.1,1c-0.3,1.2-0.6,2.3-1,3.4
	c-0.3,0.9-0.9,1.5-1.7,2c-0.9,0.6-1.9,0.9-2.9,1.1c-1.2,0.3-2.3,0.2-3.5,0.3c-0.5,0-1,0.1-1.4,0.2c-1.2,0.3-2.4,0.1-3.6,0.1
	c-0.7,0-1.5,0.1-2.2,0.3c-1.6,0.4-3.2,0.5-4.9,0.5c-1.4,0-2.7,0.1-4.1,0.2c-0.9,0.1-1.9,0.3-2.8,0.5c-0.3,0-0.5,0-0.8,0.1
	c-0.3,0-0.7,0.1-1,0.2c-0.3,0-0.5,0.1-0.8,0c-0.6-0.1-1.1,0-1.6,0.3c-0.2,0.1-0.4,0.3-0.5,0.5c-0.5,1-0.9,1.9-1.4,2.9
	c-0.7,1.4-1,2.9-1.4,4.4c-0.5,2-1,3.9-1.5,5.9c-0.1,0.5-0.2,1.1-0.4,1.6c-0.1,0.3-0.2,0.6-0.3,0.8c-0.2,0.7-0.4,1.4-0.2,2.2
	c0.1,0.5,0.5,0.8,0.9,0.9c0.7,0.2,1.4,0.4,2.2,0.5c1.2,0.2,2.4,0.5,3.6,0.5c1,0.1,2.1-0.1,3.1-0.2c1-0.1,2-0.2,2.9,0.4
	C38.3,122.1,38.6,122.2,39,122.4z"/>
<path d="M24.6,42.9c0.6,0.1,1.2,0.2,1.8,0.1c0.9-0.1,1.9-0.3,2.8-0.3c0.9,0,1.7,0,2.6,0.1c0.9,0.1,1.9,0.1,2.8,0.7
	c0.3,0.2,0.7,0.1,1,0.1c0.8-0.1,1.5,0.3,2,0.7c0.4,0.4,0.5,1.2,0.1,1.8c-1.2,1.9-2.4,3.9-3.6,5.8c-0.1,0.2-0.4,0.4-0.7,0.6
	c-0.6,0.3-1.3,0.6-2,0.8c-2.1,0.6-4.3,0.9-6.5,0.9c-1.6,0-3.2,0.2-4.8,0.4c-1.6,0.2-2.3,1.3-2.8,2.7c-0.4,1.2-0.9,2.4-1.4,3.5
	c-0.6,1.3-1.3,2.6-1.9,4c-0.7,1.7-1.7,3.3-2.7,4.9c-0.3,0.5-0.7,1-1.1,1.4c-0.3,0.3-0.7,0.4-1.1,0.5c-1.5,0.5-2.7,0-3.8-1.2
	c-0.6-0.7-1-1.5-0.9-2.5c0.1-1.4,0.1-2.8,0.4-4.2C5,63.2,5,62.9,5,62.5c0.2-1.1,0.4-2.2,0.6-3.3c0.1-0.4,0.3-0.7,0.4-1.1
	c0.3-1.2,0.6-2.3,1-3.5c0.1-0.3,0.3-0.6,0.4-0.9C7.9,52.3,8.4,51,9,49.7c0.3-0.7,0.6-1.5,0.9-2.2c0.5-1.2,1-2.4,1.5-3.6
	c0-0.1,0.1-0.2,0.1-0.2c0.2-0.9,0.7-1.8,1.1-2.6c0.6-1.1,1-2.3,1.5-3.5c0.4-0.9,0.8-1.9,1.2-2.8c0.8-1.8,1.4-3.7,2.1-5.6
	c0.8-1.9,1.1-4,1.8-6c0.1-0.3,0.1-0.6,0.2-0.9c0.1-0.4,0.1-0.8,0.4-1.1c0.3-0.4,0.1-1.8-0.2-2.1c-0.1-0.1-0.3-0.2-0.5-0.2
	c-1.9-0.3-3-1.7-3.8-3.3c-0.6-1.2,0.2-2.6,1.6-3c1.7-0.4,3.4-0.6,5.1-0.3c1.5,0.3,3.1,0.4,4.7,0.4c0.8,0,1.7-0.2,2.5-0.3
	c0.4,0,0.7,0,1.1,0c2.5,0,5,0,7.4,0c1.2,0,2.4-0.1,3.6-0.2c1.5,0,2.9,0,4.4-0.1c0.6,0,1.2-0.2,1.8-0.2c1.2-0.1,2.4-0.1,3.6-0.1
	c0.1,0,0.2,0,0.4,0c1.8-0.5,3.5-0.3,5.3-0.1c0.6,0.1,1.2,0.1,1.9,0.1c0.7,0,1.3,0.4,1.7,0.8c0.7,0.6,1.2,1.5,1.6,2.3
	c0.2,0.4,0.1,1.1,0,1.6c0,0.3,0,0.7-0.1,1c0,0.4-0.2,0.7-0.5,1c-0.3,0.2-0.4,0.5-0.7,0.7c-0.2,0.2-0.3,0.4-0.5,0.4
	c-0.8,0.2-1.6,0.5-2.3,0.9c-0.8,0.4-1.6,0.6-2.5,0.6c-1.3,0-2.6,0.2-3.8,0.3c-1.2,0.1-2.4,0.2-3.7,0.4c-1.9,0.2-3.8,0.4-5.7,0.6
	c-0.7,0.1-1.4,0.1-2,0.2c-1.8,0.2-3.6,0.5-5.5,0.8c-0.6,0.1-1.2,0.4-1.8,0.7c-0.7,0.3-0.9,0.9-1.1,1.5c-0.5,1.2-0.8,2.4-1.3,3.5
	c-0.3,0.7-0.6,1.3-0.9,2c-0.4,1-0.8,2.1-1.2,3.1c-0.6,1.4-1.1,2.8-1.7,4.2C26.1,39.8,25.3,41.2,24.6,42.9z"/>
<path d="M129.2,62.7c-0.6,0.4-1,0.8-1.5,1.2c-1.3,1-2.5,2.1-3.8,3.1c-1.1,0.9-2.2,1.8-3.3,2.7c-0.2,0.1-0.4,0.3-0.6,0.3
	c-1.2,0.2-2.5,0.6-3.7,0.6c-1.2,0-2.4-0.3-3.5-1.1c-1.3-1.1-2.6-2.2-3.6-3.5c-0.9-1.2-1.2-2.7-1.4-4.2c-0.3-2.6,0.2-5.1,0.9-7.6
	c0.3-1.1,0.9-2.1,1.4-3.1c1.1-2.3,2.6-4.2,4.2-6.1c1-1.2,2.1-2.1,3.5-2.6c1.1-0.4,2.2-0.9,3.3-1.1c2-0.4,4-0.6,6,0.1
	c0.1,0,0.2,0.1,0.3,0.1c0.8,0.2,1,0.2,1-0.7c0-0.4,0-0.9,0-1.3c0-0.5,0.1-0.9,0.2-1.4c0.3-1.9,0.7-3.7,1-5.5c0.2-1,0.3-2,0.5-2.9
	c0.3-1.4,0.8-2.8,1.1-4.2c0.4-1.6,0.6-3.3,1-4.9c0.1-0.5,0.3-1,0.4-1.5c0.1-0.8,0.1-1.5,0.3-2.3c0.2-1.4,0.6-2.7,0.8-4
	c0.1-0.4,0.2-0.7,0.2-1.1c0.1-1.9,1-3.5,2.2-4.9c1.1-1.4,2.5-1.2,4-1.1c0.5,0,1.1,0,1.6,0.4c0.4,0.3,0.6,0.7,0.8,1.2
	c0.5,1.6-0.1,3.2-0.4,4.7c-0.1,0.5-0.2,1-0.3,1.5c-0.1,0.9-0.2,1.8-0.4,2.8c-0.5,2.2-0.7,4.4-0.8,6.7c0,1.5-0.3,3-0.5,4.5
	c-0.3,2-0.7,3.9-1,5.9c-0.2,0.9-0.2,1.7-0.5,2.5c-0.3,1-0.3,2.1-0.9,3c-0.2,0.3-0.2,0.7-0.2,1.1c-0.5,2.8-1,5.6-1.5,8.4
	c-0.2,1-0.2,2-0.1,2.9c0.1,1.3,0.1,2.7,0.2,4c0.1,1.3,0.4,2.6,0.8,3.8c0.5,1.4,1.1,2.7,1.6,4.1c0.2,0.7,0.3,1.5,0.5,2.3
	c0.5,1.4,0.1,2.8,0.1,4.1c0,0.2,0,0.4,0,0.6c0.2,1.3-0.4,2.3-1.2,3.3c-0.2,0.3-0.8,0.3-1.1,0.5c-0.5,0.2-0.7-0.2-1-0.4
	c-0.5-0.3-1-0.5-1.6-0.6c-1.1-0.2-1.8-0.8-2.3-1.7c-0.5-1.1-0.9-2.3-1.4-3.4c-0.2-0.6-0.4-1.1-0.6-1.7c-0.2-0.7-0.3-1.5-0.5-2.3
	C129.4,63.5,129.3,63.2,129.2,62.7z M123.4,51.4c-0.2,0.1-0.4,0.1-0.5,0.2c-1,0.5-1.8,1.2-2.5,2c-0.9,1.1-1.7,2.2-2.5,3.3
	c-0.9,1.3-1.3,2.7-0.7,4.2c0.1,0.3,0.3,0.6,0.6,0.5c1-0.2,2-0.4,2.7-1.4c0.4-0.6,1-1.1,1.4-1.8c0.4-0.6,0.8-1.3,1.1-2
	c0.5-1,0.5-2,0.7-3C123.7,52.8,123.8,52.1,123.4,51.4z"/>
<path d="M159.1,55.7c-1,0.7-2.1,1.4-3.3,2.2c-0.4,0.2-0.8,0.4-1.2,0.6c-0.5,0.3-1,0.7-1.5,1c-1.3,0.9-2.9,1.4-4.5,1.8
	c-0.8,0.2-1.8,0.1-2.7,0.1c-0.4,0-0.8,0-1.1,0c-0.1,0-0.2,0-0.3,0c-2-0.7-3.7-1.8-4.7-3.7c-0.1-0.2-0.1-0.5-0.1-0.7
	c0.1-1.2,0.1-2.4,0.2-3.6c0-0.1,0.1-0.3,0.2-0.4c0.4-0.9,0.8-1.9,1.2-2.8c0.2-0.5,0.5-1,0.8-1.5c0.9-1.3,1.8-2.7,3.1-3.7
	c0.9-0.7,1.8-1.5,3-1.7c0.1,0,0.2-0.1,0.2-0.1c0.5-0.8,1.3-0.8,2.1-0.9c1.2-0.2,2.4-0.5,3.5-0.5c1.2,0,2.4-0.3,3.6,0.2
	c0.1,0,0.2,0,0.4,0c0.1-0.7,0.1-1.4,0.2-2.1c0.1-0.5,0.1-1.1,0.2-1.6c0.2-1.5,0.5-2.9,0.7-4.4c0.2-1.3,0.3-2.6,0.6-3.8
	c0.5-2.1,0.8-4.2,0.9-6.3c0-0.1,0-0.2,0-0.3c-0.3-1.6,0.2-3.1,0.4-4.6c0.2-2.5,1.1-4.9,1.7-7.3c0.2-0.8,0.2-1.7,0.3-2.5
	c0.2-0.9,0.4-1.7,0.8-2.5c0.7-1.6,1.7-3.1,2.9-4.4c0,0,0.1-0.1,0.1-0.1c0.4-1,1.3-1.3,2.2-1.5c0.7-0.2,1.4-0.4,2.1-0.5
	c0.3-0.1,0.7-0.1,1,0c0.6,0.2,1.2,0.4,1.7,0.7c0.8,0.5,1.1,1.3,1.1,2.2c0.1,1.8-0.6,3.5-1.1,5.3c-0.5,2-1.3,4-1.3,6.1
	c0,0.4-0.2,0.8-0.3,1.2c-0.4,1.7-0.9,3.3-1.3,5c-0.3,1.1-0.6,2.1-0.9,3.2c-0.2,0.8-0.5,1.5-0.6,2.3c-0.2,1-0.2,2-0.4,2.9
	c-0.2,0.9-0.2,1.8-0.3,2.7c-0.2,0.9-0.2,1.8-0.4,2.7c-0.3,1.5-0.6,3-0.9,4.6c-0.2,1.4-0.4,2.9-0.5,4.3c-0.1,2-0.2,3.9-0.2,5.9
	c0,1.2,0,2.5,0.4,3.7c0,0.1,0,0.3,0,0.4c0.1,0.4,0.1,0.8,0.2,1.2c0.6,1.7,1.4,3.3,2.5,4.7c0.7,1,1.7,1.8,2.6,2.6
	c0.5,0.4,1.1,0.8,1.6,1.1c0.2,0.1,0.5,0.3,0.7,0.3c0.7,0.2,1.2,0.6,1.5,1.1c0.9,1.4,0.5,3.6-1.4,3.9c-0.3,0-0.5,0.2-0.7,0.3
	c-0.9,0.7-1.4,0.7-2.3,0.1c-0.1-0.1-0.1-0.1-0.2-0.1c-1.6-0.3-2.8-1.5-4.2-2.3c-0.4-0.3-0.7-0.8-1.1-1.2c-0.1-0.1-0.2-0.3-0.3-0.3
	c-0.7-0.3-1.1-1-1.6-1.6c-0.5-0.6-0.8-1.3-1.2-1.9c-0.7-0.9-1.4-1.9-2.1-2.8C160.6,57.6,159.9,56.6,159.1,55.7z M147.1,55.4
	c1,0.3,1.7,0.2,2.4-0.2c0.6-0.4,1.2-0.9,1.8-1.3c0.7-0.5,0.9-1.3,1.3-2c0.2-0.3,0-0.7-0.4-0.6c-0.5,0.1-1,0.1-1.4,0.3
	c-0.9,0.6-1.9,1.3-2.7,2C147.7,54.1,147.5,54.7,147.1,55.4z"/>
<path d="M56.1,52.6c-0.3,0.4-0.5,0.7-0.7,1c-0.6,1.2-1,2.4-1.6,3.6c-0.6,1.2-1.2,2.4-2,3.5c-1,1.3-2.4,2.3-4,2.8
	c-0.4,0.1-0.8,0.2-1.1,0.2c-0.7,0-1.3,0.1-2,0.1c-0.5,0-0.9-0.2-1.2-0.6c-0.1-0.1-0.1-0.2-0.2-0.3c-0.9-0.7-1-0.9-0.6-1.9
	c0.3-0.9,0.7-1.8,1.1-2.6c0.3-0.8,0.6-1.6,0.9-2.4c0.3-1,0.6-2,1-3c0.9-2.2,1.8-4.5,3-6.6c1-1.7,1.8-3.6,2.8-5.4
	c0.9-1.6,1.8-3.3,3-4.7c0.8-0.9,1.5-1.9,2-2.9c0.5-0.9,1.3-1.5,2-2.2c0.5-0.5,1-1.1,1.5-1.6c1-1.1,2-2.2,3.4-2.8
	c1.4-0.6,2.7-1.4,4.1-2c0.8-0.4,1.7-0.6,2.7-0.5c0.7,0.1,1.5,0,2.2,0c0.3,0,0.6,0,0.9,0.2c0.8,0.5,1.7,0.9,2.4,1.5
	c0.4,0.3,0.5,0.8,0.8,1.3c0.2,0.4,0.3,0.8,0.5,1.1c1,1.8,1,3.7,0.6,5.7c-0.3,1.3-0.5,2.7-0.9,4c-0.3,1.2-0.8,2.3-1.5,3.3
	c-0.6,0.8-1.2,1.6-1.9,2.4c-0.7,0.8-1.6,1.4-2.7,1.8c-0.2,0.1-0.4,0.1-0.5,0.2c-1.4,0.8-3,1.2-4.6,1.8c-0.1,0-0.3,0.1-0.5,0.2
	c0.1,0.3,0.1,0.5,0.2,0.8c0.1,0.3,0.3,0.6,0.4,1c0.4,1,0.9,1.8,1.4,2.7c0.6,1.1,1,2.3,1.6,3.4c0.4,1,0.3,2.1,0.8,3
	c0.7,1.2,1.4,2.4,2.1,3.6c0.6,1,1.3,1.9,2,2.8c0.6,0.9,1.2,1.9,0.9,3.1c0,0.2,0,0.4-0.1,0.5c-0.8,0.9-1.4,1.9-2.5,2.6
	c-0.4,0.3-0.9,0.4-1.4,0.3c-1.1-0.2-2.1-0.6-2.7-1.6c-0.2-0.3-0.5-0.6-0.8-0.8c-1.3-1.1-2.2-2.6-3.1-4c-0.9-1.3-1.8-2.7-2.8-4
	c-1.2-1.7-2.3-3.4-3.3-5.2c-0.4-0.9-0.9-1.8-1.3-2.6C56.4,53,56.2,52.9,56.1,52.6z M68.5,32.3c-1-0.4-1.7,0.1-2.2,0.7
	c-0.6,0.7-1.2,1.6-1.9,2.2c-0.9,0.9-1.2,2.1-1.8,3.2c-0.3,0.5-0.3,1.1-0.1,1.8c0.5-0.2,1.1-0.2,1.5-0.5c0.7-0.5,1.4-1.1,2-1.8
	c0.6-0.7,1.2-1.4,1.8-2.2c0.3-0.4,0.7-0.8,0.9-1.4C68.8,33.6,68.8,32.9,68.5,32.3z"/>
<path d="M183.9,130.2c0.5,1.1-0.1,2.1-0.3,3c-0.3,1.1-0.7,2.1-1,3.1c-0.3,1.1-0.7,2.2-1.4,3c0,0-0.1,0.1-0.1,0.2
	c-1.5,2.1-1.4,2.1-4,3.7c-1,0.6-1.9,0.4-2.9,0.5c-0.9,0.1-1.7,0.1-2.6,0.1c-0.1,0-0.2,0-0.3,0c-1.2-0.3-2.4-0.6-3.6-0.9
	c-0.9-0.3-1.8-0.6-2.7-1.1c-0.7-0.4-1.2-1-1.8-1.5c-1-0.9-1.7-2-2.3-3.2c-0.7-1.3-1.1-2.7-1.2-4.3c-0.1-1.8,0.4-3.6,0.4-5.4
	c0.1-2.6,0.9-5,1.7-7.4c0.3-1,0.9-1.9,1.4-2.8c0.6-1.1,1.2-2.2,1.7-3.2c0.6-1.1,1.1-2.2,1.8-3.2c0.6-0.9,1.4-1.7,2.1-2.6
	c0.3-0.4,0.6-0.8,0.9-1.1c0.3-0.3,0.7-0.5,1-0.7c1.2-0.7,2.4-1.4,3.6-1.9c1.1-0.5,2.3-0.8,3.5-0.5c0.8,0.2,1.6,0,2.5,0.2
	c1,0.2,1.6,0.9,2.3,1.5c0.3,0.3,0.6,0.6,0.9,0.9c0.8,0.8,1.5,1.6,2.3,2.5c0,0.9,0.7,1.5,0.9,2.3c0.3,1,0.7,1.9,0.9,2.9
	c0.2,1.1,0.1,2.1-0.2,3.2c-0.1,0.5-0.1,1.1-0.6,1.4c-0.1,0.9-0.8,1.3-1.3,1.9c-0.4,0.5-1,0.9-1.4,1.3c-0.5,0.6-1.2,1-1.9,1.4
	c-0.8,0.6-1.7,1-2.8,1.2c-0.1,0-0.1,0-0.2,0c-0.7,0.2-1.3,0.6-2.1,0.6c-0.7,0-1.4,0.4-2.1,0.5c-0.7,0.1-1.5,0.1-2.2,0.2
	c-0.7,0-1.4,0.1-2.1,0.1c-1.2,0-1.7,0.8-1.9,2.1c-0.1,0.8,0,1.5,0.1,2.3c0,0,0,0.1,0,0.1c0.5,0.9,0.9,1.8,1.8,2.5
	c0.5,0.4,1.1,0.5,1.8,0.5c1,0,2.1-0.1,3.1-0.1c1,0,1.8-0.4,2.6-0.8c0.8-0.5,1.6-1.2,2.4-1.7c0.3-0.2,0.6-0.3,0.9-0.5
	c0.2-0.1,0.5-0.1,0.8-0.3C182.8,130,183.3,130,183.9,130.2z M176.7,113.1c-0.1-0.2-0.2-0.5-0.4-0.5c-0.2-0.1-0.5,0-0.6,0.1
	c-0.3,0.3-0.6,0.7-0.9,1c-1,0.9-1.5,2.1-2.1,3.3c-0.1,0.1,0,0.4,0,0.6c0.1,0.1,0.3,0.2,0.4,0.2c0.9-0.5,1.9-0.8,2.6-1.6
	C176.5,115.2,176.6,114.2,176.7,113.1z"/>
<path d="M76.2,104c0.1,1.2,0.2,2.3,0.3,3.5c0,1.2-0.1,2.4-0.6,3.5c-0.4,0.8-0.7,1.6-1,2.4c-0.1,0.3-0.3,0.5-0.4,0.8
	c-0.7,1.2-1.6,2.4-2,3.8c-0.3,1-0.9,1.9-1.3,2.9c-0.4,1-0.8,2-1.2,3c-0.3,0.8-0.6,1.7-1,2.5c-0.5,1.3-1.1,2.6-1.6,3.9
	c-0.2,0.4-0.4,0.8-0.5,1.2c-0.2,0.6-0.3,1.3-0.4,1.9c-0.4,1.7-0.8,3.5-1.2,5.2c0,0.1-0.1,0.2-0.1,0.4c0,1.6-0.8,3-1.3,4.5
	c-0.4,1.4-0.9,2.7-1.5,4c-0.6,1.5-1.2,3-2.2,4.3c-0.6,0.7-1.3,1.5-1.9,2.2c-0.1,0.2-0.4,0.3-0.6,0.2c-1.5-0.1-3-0.5-4-1.7
	c-0.7-0.9-1.1-1.8-1.2-3c-0.1-1.1-0.3-2.2-0.5-3.3c-0.2-1.3,0.1-2.5,0.6-3.7c0.8-2.2,1.5-4.5,1.9-6.9c0.3-1.7,0.7-3.4,1.3-5
	c0.8-2.2,1.3-4.5,2-6.8c0.4-1.3,0.9-2.5,1.2-3.7c0.5-1.8,1.6-3.5,2.1-5.3c0.3-1.1,0.6-2.2,1-3.2c0.2-0.4,0.3-0.9,0.5-1.3
	c0.9-1.6,1.7-3.2,2.3-4.9c0.8-2.2,1.8-4.2,2.9-6.2c0.3-0.5,0.4-1,0.7-1.6c0.1-0.1,0.1-0.3,0.2-0.4c0.3-0.6,0.8-0.9,1.2-1.3
	c0.4-0.4,1.1-0.7,1.7-0.7c0.8-0.1,1.5,0,2.2,0.6c1.2,1.2,2,2.5,2.2,4.2c0.2,1.4,0.3,2.9,0.5,4.3C76.3,103.9,76.3,103.9,76.2,104z"/>
<path d="M202.9,51.2c0.2-1.1,0.4-2.2,0.5-3.3c0.1-1.6,0.9-2.9,1.5-4.4c0.9-2.6,2.3-5,3.9-7.3c1.2-1.7,2.4-3.2,4.2-4.2
	c0.6-0.3,1-0.8,1.5-1.3c1-0.8,2.1-1.5,3.5-1.7c0.6-0.1,1.3-0.3,1.9-0.5c0.5-0.1,0.9-0.1,1.4,0c0.6,0.1,1.3,0.2,2,0.2
	c0.8-0.1,1.4,0.2,2,0.5c0.5,0.3,0.9,0.6,1.3,1c0.3,0.3,0.5,0.6,0.5,1c0,0.5,0.3,0.9,0.4,1.3c0,0.2,0.1,0.3,0.1,0.5
	c0,1.2,0.1,2.4,0,3.6c0,0.6-0.3,1.1-0.5,1.7c-0.4,1.6-1.2,3-2.2,4.3c-1.2,1.6-2.4,3.2-3.6,4.8c-0.6,0.8-1.2,1.6-1.9,2.4
	c-0.3,0.4-0.7,0.7-1.2,0.9c-0.4,0.1-0.7,0.4-1,0.6c-0.5,0.3-1,0.5-1.5,0.7c-0.9,0.3-1.7,0.7-2.5,1.2c-0.4,0.2-0.5,0.5-0.6,0.9
	c-0.1,1.2-0.1,2.3,0.5,3.4c0.2,0.3,0.4,0.6,0.7,0.9c0.4,0.5,0.9,1,1.4,1.4c0.2,0.2,0.4,0.4,0.6,0.4c1.1,0.2,2.2,0.6,3.3,0.3
	c1.5-0.3,2.9-0.6,4.4-0.9c0.6-0.1,1.3-0.3,1.9-0.5c0.3-0.1,0.5-0.1,0.7,0.2c0.8,0.9,0.7,1.6,0.1,2.7c-0.7,1.3-1.7,2.5-2.6,3.7
	c-0.3,0.5-0.7,0.8-1.3,1.1c-0.9,0.4-1.8,0.9-2.7,1.4c-0.3,0.2-0.5,0.2-0.8,0.1c-2-0.3-3.9-0.8-5.8-1.5c-1.1-0.4-2.2-0.9-3.1-1.7
	c-0.6-0.6-1.2-1.3-1.7-1.9c-0.3-0.4-0.6-0.7-0.9-1.1c-1.3-1.4-2.3-2.9-2.6-4.8c-0.1-0.5-0.4-1-0.6-1.6c-0.4-1.2-0.9-2.3-0.9-3.6
	C202.9,51.8,202.9,51.5,202.9,51.2C202.9,51.2,202.9,51.2,202.9,51.2z M213,43.8c0.2,0,0.3,0,0.3,0c1.3-0.8,2.6-1.6,3.8-2.5
	c0.7-0.6,1.3-1.5,1.9-2.3c0.1-0.2,0.2-0.6,0-0.7c-0.2-0.3-0.5-0.1-0.8,0c-0.7,0.3-1.2,0.9-1.8,1.3C214.9,40.7,213.9,42.1,213,43.8z"
	/>
<path d="M93.4,64.2c1.4,0.1,3-0.1,4.5-0.5c1.3-0.4,2.6-0.6,3.8-0.9c1-0.3,1.4,0.6,1.1,1.3c-0.2,0.6-0.5,1.3-0.8,1.9
	c-0.3,0.7-0.6,1.3-1.3,1.7c-0.8,0.6-1.6,1.5-2.5,1.9c-1.5,0.7-3,1.1-4.6,1.6c-0.2,0.1-0.4,0-0.6,0c-1.5-0.2-3.1-0.4-4.5-1
	c-0.4-0.2-0.7-0.5-1-0.7c-1.4-0.8-2.6-1.8-3.9-2.6c-1.1-0.7-1.8-1.6-2.5-2.7c-1.1-1.8-1.9-3.7-2.7-5.6c-0.2-0.5-0.3-1-0.3-1.6
	c-0.1-1.1-0.1-2.3,0-3.4c0.1-0.9,0.2-1.8,0.7-2.6c0.3-0.4,0.5-0.9,0.6-1.4c0.2-0.8,0.7-1.3,1.2-1.9c0.9-1.2,1.8-2.5,2.8-3.7
	c1.2-1.5,2.8-2.6,4.3-3.8c0.1-0.1,0.3-0.1,0.4-0.3c0.6-0.7,1.4-1.3,2.2-1.7c1.1-0.5,2.2-1.1,3.3-1.6c0.8-0.4,1.7-0.3,2.6-0.2
	c0.1,0,0.3,0.1,0.4,0.2c0.5,0.2,1.1,0.5,1.6,0.7c0.9,0.4,1.8,0.8,2.5,1.6c0.2,0.2,0.4,0.4,0.6,0.5c1.8,1,2.6,2.8,3.1,4.7
	c0.1,0.3,0.2,0.6,0.3,0.8c0.2,0.7,0.3,1.3,0.2,2c-0.2,1.2-0.3,2.4-0.7,3.5c-0.7,2-2,3.6-3.6,5c-1.1,0.9-2.3,1.8-3.5,2.4
	c-0.7,0.4-1.5,0.6-2.3,0.8c-1.2,0.2-2.4,0.4-3.6,0.5c-0.6,0-1.3-0.1-1.9-0.2c-0.4,0-0.8-0.1-1.2-0.1c-0.8,0-1.2,0.5-1.1,1.3
	c0.2,0.9,0.8,1.5,1.2,2.2c0.2,0.3,0.5,0.6,0.8,0.9c1,0.9,2.2,1.3,3.6,1.1C92.9,64.2,93.1,64.2,93.4,64.2z M88.8,50.4
	c0.2,0.1,0.4,0.2,0.6,0.2c1.7,0.4,3.3-0.2,4.8-1c0.3-0.2,0.6-0.4,0.8-0.7c0.7-1,1.3-2.1,1.9-3c-0.5-1.2-1.4-1.9-2.2-1.7
	c-0.7,0.1-1.4,0.4-2,0.9c-0.7,0.6-1.3,1.4-1.9,2.1C89.9,48.1,89.2,49.1,88.8,50.4z"/>
<path d="M235.2,139.4c-0.2-1.2,0.1-2.8,0.6-4.4c0.5-1.5,2-3,3.9-2.7c0.1,0,0.2,0,0.3,0c1.5-0.5,2.9,0.2,4.3,0.5
	c0.6,0.1,0.7,0.1,1-0.4c0.4-0.7,0.6-1.5,0.6-2.3c0-0.3-0.1-0.7-0.3-1c-0.9-1.3-1.8-2.7-2.9-3.9c-1.2-1.3-2.5-2.4-3.8-3.6
	c-0.6-0.6-1.2-1.3-1.8-1.9c-0.3-0.3-0.6-0.5-1-0.7c-2-1.6-2.7-4.1-2-6.3c0.2-0.6,0.6-1.1,1.2-1.5c1-0.7,2.1-1.5,3.1-2.2
	c0.4-0.3,0.8-0.5,1.3-0.6c0.4-0.2,0.9-0.2,1.4-0.3c0.3-0.1,0.7-0.1,1-0.2c0.1,0,0.3-0.1,0.4-0.1c1.1,0.4,2.1-0.4,3.2-0.3
	c0.6,0.1,1.3-0.4,2-0.4c1,0,2.1-0.1,3.1,0.5c0.8,0.5,1.5,1.3,1.5,2.2c0,1-0.2,2.1-0.5,3.1c-0.2,0.7-0.9,1.1-1.7,1.2
	c-0.9,0.2-1.8,0-2.7,0.2c-0.6,0.1-1.3,0.2-1.9,0.5c-0.6,0.3-0.7,1-0.3,1.6c0.5,0.7,1,1.4,1.6,1.9c1.1,1.1,2.2,2.2,3.4,3.1
	c1.2,0.8,2.1,1.8,3.1,2.9c0.3,0.4,0.6,0.9,0.8,1.4c0.5,1.3,0.9,2.7,1.2,4.1c0.2,0.7,0,1.5,0,2.3c0,0.4-0.1,0.8-0.1,1.2
	c-0.1,0.6-0.2,1.2-0.5,1.7c-0.3,0.5-0.4,1.1-0.5,1.6c-0.2,1.3-0.6,2.4-1.4,3.4c-0.1,0.1-0.2,0.2-0.3,0.4c-0.2,0.9-0.9,1.4-1.4,2
	c-0.8,0.9-1.9,1.6-3,2c-0.3,0.1-0.6,0.2-0.8,0.4c-1.4,0.8-3,0.9-4.6,1c-2.4,0.1-4.2-0.9-5.8-2.4c-0.3-0.3-0.6-0.5-0.8-0.8
	C235.3,141.6,235.3,141.6,235.2,139.4z"/>
<path d="M250.6,68.2c2.1-1.2,3.8-2.7,5-4.9c1.1-2.1,1.7-4.5,2.5-6.7c0.9-2.5,0.8-5.1,0.3-7.7c-0.3-1.9-1.2-3.5-2.2-5.1
	c-1.7-2.7-3.3-5.5-4.7-8.5c-0.7-1.7-1-3.4-1-5.2c0-1.6,1-2.9,2.2-3.8c1.6-1.2,3.3-2.3,4.9-3.4c1.3-0.9,2.5-0.8,3.7,0
	c0.8,0.5,1.5,1.2,2,1.9c0.5,0.8,0.9,1.7,0.9,2.8c0,0.7,0,1.3-0.3,1.9c-0.3,0.6-0.4,1.3-0.7,1.9c-0.2,0.4-0.5,0.7-0.7,1.1
	c-0.7,0.9-1.5,1.8-2.5,2.5c-0.2,0.1-0.4,0.4-0.5,0.7c-0.1,0.6-0.5,1.3-0.1,1.9c0.1,0.1,0,0.3,0,0.5c0,0.5,0,1,0.4,1.4
	c0.1,0.1,0.2,0.4,0.3,0.6c0.4,0.6,0.4,1.3,1,1.8c0.4,0.3,0.5,0.9,0.7,1.5c0.2,0.9,0.7,1.8,1.1,2.6c0.3,0.5,0.5,1,0.4,1.6
	c0,0.2,0,0.4,0.1,0.5c0.5,1,0.6,2.1,0.6,3.1c0,0.4,0,0.9,0,1.3c0,1.2,0,2.4-0.6,3.5c-0.1,0.1-0.1,0.3-0.1,0.4
	c0.2,1.6-0.9,2.9-1.2,4.4c-0.2,1-0.9,1.9-1.3,2.9c-0.2,0.5-0.4,1.1-0.6,1.7c-0.1,0.4-0.2,0.8-0.5,1.1c-0.9,1.4-1.8,2.9-2.7,4.3
	c-0.3,0.5-0.8,0.9-1.2,1.4c-0.7,0.9-1.6,1.6-2.5,2.2c-0.4,0.3-0.6,0.7-1.1,1c-1.3,0.7-2.7,1.2-4.2,1.2c-0.9,0-1.8-0.3-2.7-0.7
	c-1.2-0.5-1.8-1.4-2.2-2.6c-0.7-2.1-0.2-4,1.1-5.8c0.7-1,1.3-2.1,1.9-3.1c0.2-0.4,0.5-0.8,0.8-1.1c0.1-0.1,0.5-0.2,0.6-0.2
	c0.2,0.1,0.3,0.4,0.3,0.6c0,0.7-0.1,1.3,0.4,1.9c0.2,0.2-0.1,0.8,0.4,1.1c0.3,0.2,0.6,0.6,0.9,0.8C249.8,67.9,250.2,68,250.6,68.2z"
	/>
<path d="M192.8,35.3c0.4,0.5,0.9,0.5,1.3,0.2c0.5-0.2,1,0.2,1.4-0.3c0-0.1,0.4,0.2,0.6,0.3c0.7,0.3,1.5,0.6,1.9,1.4
	c0,0.1,0.1,0.2,0.2,0.2c0.8,0.2,0.7,0.8,0.7,1.4c0,0.6-0.1,1.2-0.3,1.7c-0.3,0.8-0.5,1.7-0.7,2.6c-0.1,0.3-0.2,0.7-0.3,1
	c-0.2,0.6-0.3,1.1-0.2,1.7c0.1,0.7,0,1.4-0.2,2.1c-0.3,1.2-0.7,2.3-1.1,3.4c-0.6,1.8-1.1,3.6-1.6,5.5c-0.4,1.4-0.7,2.9-1,4.3
	c-0.2,1-0.4,2.1-0.2,3.2c0.1,0.5-0.2,1-0.1,1.5c0.1,0.7-0.1,1.2-0.4,1.8c-0.6,1.1-1.9,1.5-2.9,0.8c-0.8-0.5-1.5-1.3-2.4-1.8
	c-0.7-0.4-1.1-1.1-1.6-1.7c-0.6-0.8-0.7-1.8-0.6-2.7c0-0.8,0.2-1.5,0.3-2.3c0.2-1.2,0.3-2.5,0.5-3.7c0.1-0.5,0.3-0.9,0.3-1.4
	c0.2-1.1,0.2-2.1,0.4-3.2c0.2-1,0.4-2,0.6-3c0-0.2,0-0.3,0-0.5c-0.9-0.2-1.8-0.4-2.7-0.7c-1.4-0.4-3-0.8-4.1-1.9
	c-1-0.9-2-1.9-2.3-3.3c-0.2-0.8,0.3-1.4,0.8-1.9c0.3-0.3,0.9-0.3,1.4-0.4c1.9-0.2,3.7-0.3,5.6-0.5c0.7-0.1,1.5-0.5,2.2-0.8
	C189.9,37.5,191.3,36.4,192.8,35.3z"/>
<path d="M241.3,19.8c-0.2-0.1-0.4-0.1-0.6-0.1c-1.6-0.1-2.5-1.2-3.1-2.4c-0.4-0.7-0.3-1.5,0.1-2.2c1.3-2.1,2.8-4,5-5.3
	c1.1-0.6,2.4-1.1,3.7-0.5c0.8,0.4,1.5,1,2.3,1.5c0.1,0.1,0.1,0.3,0.2,0.4c0.2,0.9,0.4,1.9,0.5,2.8c0.1,0.7,0.1,1.5-0.1,2.1
	c-0.4,1.6-1,3.2-2,4.6c-0.3,0.5-0.6,1-0.8,1.6c-0.3,1-1,1.8-1.5,2.6c-0.1,0.2-0.3,0.3-0.4,0.4c-1,0.7-1.9,1.4-2.9,2
	c-0.6,0.4-1.3,0.6-2,0.6c-0.8,0-1.2-0.4-1.7-0.9c-0.2-0.2-0.3-0.5-0.1-0.8c0.2-0.2,0.2-0.5,0.4-0.7c0.8-0.7,1.3-1.6,1.7-2.6
	c0.3-0.9,0.8-1.7,1.1-2.6C241.2,20.2,241.3,20,241.3,19.8z"/>
<path d="M189.1,27.7c0-0.8,0.2-1.5,0.6-2.1c0.2-0.3,0.4-0.6,0.6-1c0.9-1.6,3.1-1.7,4.2-0.8c0.6,0.4,1.3,0.7,1.8,1.3
	c0.7,0.7,1.2,1.4,1.1,2.4c0,0.2,0,0.4,0.1,0.5c0.2,0.9,0.1,1.7-0.4,2.5c-0.5,0.8-1.4,1.1-2.2,1.3c-0.8,0.2-1.6,0.1-2.3-0.2
	c-1.4-0.6-2.6-1.3-3.3-2.7C189.2,28.6,189.2,28.1,189.1,27.7z"/>
</svg>
