<?xml version="1.0" encoding="utf-8"?>
<!-- Generator: Adobe Illustrator 23.0.3, SVG Export Plug-In . SVG Version: 6.00 Build 0)  -->
<svg version="1.1" id="Layer_1" xmlns="http://www.w3.org/2000/svg" xmlns:xlink="http://www.w3.org/1999/xlink" x="0px" y="0px"
	 viewBox="0 0 48 56.3" style="enable-background:new 0 0 48 56.3;" xml:space="preserve">
<g id="MmEq8h.tif">
	<g>
		<path d="M21,44.1c-0.1,0.3-0.1,0.5-0.1,0.7c-0.2,1.2-0.3,2.5-0.8,3.7c-0.6,1.4-1.4,2.7-2.8,3.5c-0.8,0.5-1.5,1.1-2.3,1.5
			c-0.9,0.5-1.9,1-2.9,1.4c-0.5,0.2-1,0.2-1.5,0.3c-0.4,0.1-0.8,0.3-1.2,0.5c-0.8,0.4-1.5,0.8-2.4,0.5c-0.4-0.1-0.5-0.4-0.4-0.7
			s0.3-0.7,0.6-0.9c1.6-1.2,2.6-2.8,2.9-4.7c0.2-1.1,0.5-2.2,0.6-3.3c0.1-0.6-0.1-1.3-0.2-1.9c0-0.4-0.2-0.5-0.7-0.5
			c-1.7,0-3.4,0.1-5.1,0c-1.8-0.1-3.1-1.2-3.7-3c-0.9-2.8-1.2-5.7-1-8.7c0.1-2.5,0.4-5,0.5-7.5c0.2-2,0.4-3.8,0.5-5.6
			c0.2-2,0.6-3.9,1.4-5.6s2.2-2.8,4-3.1c1.6-0.3,3.3-0.5,5-0.6C13,10,14.7,10,16.3,10c1.6-0.1,3.3-0.2,4.9-0.2c1.3,0,2.6,0,3.9-0.1
			c1.2,0,2.3-0.1,3.5-0.1c1.7,0,3.3,0,5,0c2.4-0.1,4.9-0.2,7.3-0.2c1.4,0,2.7,0.2,4.1,0.5c0.5,0.1,1,0.8,1.3,1.3
			c0.4,0.7,0.7,1.5,1,2.2c0.2,0.8,0.3,1.7,0.5,2.6c0.1,0.9,0.1,1.8,0.3,2.6c0.2,1.2,0.1,2.3,0,3.5C47.8,22.8,48,23.4,48,24
			c0,0.5-0.1,0.9-0.1,1.4c-0.1,1.7-0.1,3.4-0.3,5.1c-0.2,1.9-0.3,3.9-0.2,5.8c0,0.9-0.1,1.8-0.4,2.6c-0.3,0.8-0.7,1.5-1.3,2.1
			c-0.4,0.4-1.1,0.6-1.6,0.8c-0.4,0.2-0.9,0.2-1.2,0.4c-1,0.6-2.2,0.6-3.3,0.9c-1,0.3-2.1,0.5-3.1,0.6c-0.4,0.1-0.7,0.1-1.1,0.1
			c-1.1,0-2.2,0.1-3.4,0.1c-1.6,0.1-3.2,0.3-4.8,0.4c-1.7,0.1-3.6,0.1-5.4,0.1C21.6,44.4,21.3,44.2,21,44.1z M12,52.4
			c0.1,0,0.2,0,0.3,0c1.6-0.8,3.1-1.7,4.3-3.1c1-1.2,1.4-2.7,1.7-4.2c0.1-0.6,0.1-1.3,0.3-1.9c0.2-1,0.3-1,1.3-0.9
			c1.7,0.1,3.4,0.3,5,0.3c2.1-0.1,4.2-0.4,6.3-0.6c2-0.2,4-0.3,6-0.7c1.7-0.3,3.3-1,4.9-1.5c0.6-0.2,1.1-0.6,1.3-1.3
			c0.2-0.7,0.4-1.4,0.4-2c0.1-1.3,0-2.5,0-3.8c0-3.2,0.1-6.4,0.1-9.6c0-2.2-0.2-4.5-0.5-6.7c-0.1-1.2-0.3-2.4-0.6-3.5
			c-0.3-1.2-0.8-1.5-1.9-1.5c-1.9,0-3.8,0-5.6,0c-1.5,0-2.9-0.1-4.3-0.1c-2.4,0-4.7,0-7.1,0.1c-3.3,0-6.6,0.1-9.9,0.2
			c-1.8,0-3.7,0-5.5,0.1c-1.1,0.1-2.1,0.5-2.7,1.4c-0.8,1.3-1,2.7-1.2,4.2c-0.2,1.3-0.3,2.6-0.4,3.8c-0.2,2.1-0.4,4.2-0.5,6.3
			c-0.1,1.2,0,2.5-0.1,3.7c0,1.6-0.2,3.3-0.1,4.9c0.1,2,0.4,4.1,0.7,6.1c0,0.2,0.3,0.4,0.5,0.4c1.4,0.1,2.8,0.2,4.3,0.2
			c0.6,0,1.2-0.1,1.8-0.3c0.5-0.2,1.3-0.3,1.6,0.1c0.6,0.6,0.7,1.1,0.2,1.8c0.1,0.1,0.2,0.3,0.2,0.4c0.1,0.7,0.2,1.5,0.2,2.2
			c0,0.5-0.1,1-0.2,1.5c-0.2,1-0.4,2.1-0.6,3.1C12,51.8,12,52.1,12,52.4z"/>
		<path d="M16.7,27.1c-0.5,0.2-0.9,0.3-1.2,0.4c-0.5,0.1-1,0.2-1.5,0.2c-1.1,0.1-1.2,0.3-1.1,1.4c0.1,1.5,0.2,3,0.2,4.5
			c0,0.7-0.2,1.3-0.7,1.6c-0.3,0.2-0.9,0.4-1.2,0.3c-0.6-0.2-1.2-0.6-1.7-1c-0.3-0.2-0.4-0.7-0.4-1.1c-0.1-2.1-0.2-4.2-0.3-6.3
			c-0.1-2.3-0.2-4.6-0.4-6.8c0-0.6,0.1-1.3-0.5-1.9c0,0,0.1-0.5,0.3-0.5c1.1-0.4,2.5,0.3,3,1.4c0.4,0.8,0.7,1.5,0.9,2.3
			c0.4,1.2,0.5,2.3,0.5,3.5c0,0.2,0,0.3,0,0.5c0,0.3,0.2,0.5,0.5,0.4c1.1-0.4,2.2-0.7,3.2-1.2c0.2-0.1,0.3-0.6,0.3-0.9
			c0-1.5,0-3.1,0-4.6c0-0.3,0.1-0.6,0.1-0.9c0-0.3,0-0.6-0.1-0.9c0-0.6,0.4-1.1,1-1.1c0.9,0,1.7,0.7,2,1.6c0.4,1.5,0.6,3,0.5,4.5
			c-0.1,1.7-0.1,3.5,0,5.2c0.1,1.8,0.2,3.6,0.3,5.3c0.1,1,0.4,2.1,0.6,3.1c0.1,0.7,0,0.8-0.7,0.9c-1.1,0.1-1.8-0.4-2.3-1.2
			c-0.3-0.5-0.4-1.1-0.5-1.7c-0.2-1.4-0.4-2.8-0.5-4.3C16.8,29,16.8,28.1,16.7,27.1z"/>
		<path d="M36.2,21c-0.1,1.1-0.2,2.2-0.2,3.3c0,0.9,0.1,1.7,0.2,2.6c0,1,0,1.9,0,2.9c0,0.8,0,1.6-0.2,2.4c-0.2,1.3-1.3,1.6-2.5,0.9
			c-1.4-0.9-1.2-2.1-1.1-3.4c0-0.3-0.1-0.5-0.1-0.8c0-1.3,0.1-2.7,0.1-4c0.1-1.9,0.2-3.8,0.2-5.7c0-0.5-0.1-0.9-0.2-1.4
			c-0.2-0.8,0.1-1,0.9-0.9c1.3,0.2,2.7,2.1,2.7,3.3C36.2,20.4,36.2,20.7,36.2,21L36.2,21z"/>
		<path d="M24.2,34.3c0-1.8,0-3.2,0-4.6c0-1.6-0.1-3.3-0.1-4.9c0-0.5,0.6-0.7,1.3-0.4c1.4,0.6,2.1,1.7,2.2,3.2
			c0.1,1,0.2,1.9,0.2,2.9s0,2,0,3c0,0.3,0,0.7,0.1,0.9c0.2,0.7,0,1.2-0.5,1.5c-0.4,0.3-1.1,0.3-1.6,0C25.1,35.6,24.1,35.2,24.2,34.3
			z"/>
		<path d="M35.1,39.4c-1-0.1-1.7-0.3-2.2-1.1c-0.3-0.6,0.1-0.9,0.4-1.3c0.3-0.3,0.7-0.4,1.1-0.1c0.4,0.3,0.8,0.4,1.1,0.6
			c0.6,0.3,0.6,0.7,0.2,1.1C35.5,38.8,35.3,39.1,35.1,39.4z"/>
		<path d="M23.6,20.1c0.5,0,1.1,0.5,1.1,1s-0.3,0.7-0.6,0.7c-0.5,0.1-1.4-0.7-1.4-1.2C22.6,20.3,22.8,20.2,23.6,20.1z"/>
	</g>
</g>
</svg>
