<?xml version="1.0" encoding="utf-8"?>
<!-- Generator: Adobe Illustrator 23.0.3, SVG Export Plug-In . SVG Version: 6.00 Build 0)  -->
<svg version="1.1" id="Layer_1" xmlns="http://www.w3.org/2000/svg" xmlns:xlink="http://www.w3.org/1999/xlink" x="0px" y="0px"
	 viewBox="0 0 40.3 88.1" style="enable-background:new 0 0 40.3 88.1;" xml:space="preserve">
<g id="EAwM8A.tif">
	<g>
		<path d="M35.4,13c0.7,0.3,1.5,0.5,2.2,0.8c0.7,0.3,1.4,0.7,2,1.2c1,0.8,0.9,2.1-0.2,2.8c-1,0.7-2.2,1.1-3.4,1
			c-0.8,0-1.6-0.2-2.5-0.4c0.1,0.7,0.2,1.4,0.2,2.1c0.1,1.1,0.2,2.3,0.1,3.4c-0.1,1.5-1.4,2-2.6,1.5c-0.6-0.2-1.2-0.5-1.6-1
			c-0.4-0.5-1-0.9-1.6-1.3c-0.3,0.6-0.6,1.3-0.9,1.9c-0.5,1.1-1.4,1.8-2.6,2c-1.1,0.2-2.4-0.9-2.6-1.9c-0.1-0.5-0.2-1-0.3-1.4
			c-0.8,0.5-2.3,6.2-2.4,8.9c0.5-0.5,1-1,1.5-1.5c1-1,2-1.8,3.3-2.1c0.2-0.1,0.4-0.1,0.6-0.1c0.6,0,0.7,0.2,0.6,0.8
			c-0.4,1.3-1.1,2.3-1.9,3.4c-0.6,0.7-1.1,1.5-1.7,2.3c-0.1,0.2-0.2,0.4-0.3,0.6c0.8,0.2,1.6,0.4,2.4,0.6c0.9,0.3,1.8,0.6,2.7,1
			c0.5,0.2,0.9,0.7,1.2,1.2c0.1,0.1,0,0.5-0.1,0.7c-0.6,0.8-0.7,1.6-0.7,2.6c0,0.7-0.3,1.5-0.3,2.2c-0.1,1.6-0.1,3.3,0,4.9
			c0.1,1.7,0.4,3.3,0.7,5c0.1,0.8,0.3,1.7,0.5,2.5c0.3,1.2,0.8,2.3,1.2,3.5c0.4,1.3,0.8,2.6,1.3,3.8c0.2,0.5,0.4,1,0.5,1.5
			c0.2,0.9,0.5,1.7,0.7,2.6c0.2,0.7,0.3,1.5,0.5,2.3c0.3,1.3,0.3,2.6,0.2,3.9c-0.2,1.7-0.2,3.5-0.5,5.2c-0.3,1.5-0.6,3-1.7,4.1
			c-0.7,0.7-1.5,1.3-2.3,1.9c-0.2,0.1-0.5,0.1-0.7,0.1c-1.3,0.3-2.6,0.6-3.9,0.8c-0.8,0.1-1.7,0.2-2.5,0.2c-2.2,0.2-4.3,0.3-6.5,0.5
			c-1.2,0.1-2.4,0.4-3.7,0.5c-0.6,0.1-1.3,0.1-1.9,0.2c-0.8,0.1-1.7,0.2-2.6,0.3c0.5-0.4,0.9-0.8,1.4-1.1c1.1-0.8,2.5-1.1,3.8-1.3
			c2.5-0.4,5.1-0.7,7.7-1c2.3-0.3,4.5-0.5,6.7-1.4c1.8-0.8,2.9-2.1,3.2-4c0.3-2.2,0.6-4.4,0.7-6.6c0.1-2.1-0.3-4.2-0.9-6.3
			c-0.7-2.4-1.5-4.7-2.2-7.1c-0.5-1.7-1.1-3.4-1.4-5.2c-0.3-1.8-0.5-3.7-0.5-5.6c-0.1-1.6,0.1-3.3,0.2-4.9c0-0.7,0.2-1.3,0.3-2
			c-3,0.5-5.9,1.3-8.9,1.5c-3,0.3-6,0.1-9.1,0.1c0.2,0.6,0.4,1.2,0.6,1.8C7.5,46.3,8,47.5,8,48.8c0.1,1.5-0.1,3-0.4,4.5
			c-0.4,2.2-1,4.3-1.6,6.4c-0.5,1.7-1.1,3.4-1.6,5.1c-0.4,1.4-0.7,2.9-1.2,4.3c-0.6,1.8-0.6,3.7-0.7,5.5c-0.1,0.9,0.2,1.9,0.4,2.9
			c0.2,1.1,0.6,2.1,0.9,3.2C4.1,81.8,4.6,83,5,84.1c0.4,1,0.8,2,2,2.3c-0.4,0.3-0.8,0.5-1.3,0.3c-0.8-0.4-1.6-0.9-2.2-1.7
			c-1.2-1.8-2-3.8-2.6-5.9c-0.6-1.9-1-3.8-0.9-5.7c0.1-1.8,0.3-3.7,0.8-5.4c0.9-3.3,2-6.6,3-10c0.6-2.2,1.2-4.4,1.7-6.6
			c0.7-2.9,0-5.6-0.8-8.3c-0.1-0.2-0.2-0.4-0.4-0.6c-0.1-0.1-0.2-0.3-0.2-0.4c0.4-0.4,0.1-0.8,0-1.1c-0.2-0.6,0-1,0.3-1.4
			c0.7-0.9,1.7-1.4,2.7-1.8c1.3-0.5,2.7-0.9,4.1-1.2c1-0.2,2.1-0.3,2.9,0.4c0.1,0.1,0.2,0.3,0.3,0.5c-0.2,0.1-0.3,0.3-0.5,0.3
			c-0.7,0-1.4-0.2-2.1,0c-1.1,0.2-2.3,0.4-3.3,0.8c-0.9,0.3-1.7,0.9-2.6,1.4c-0.2,0.1-0.3,0.3-0.6,0.6c0.6,0.1,1,0.3,1.4,0.3
			c1.2,0.1,2.5,0.1,3.7,0.1c1.7,0,3.5-0.1,5.4-0.2c-0.2-1.2,0.2-2.2-0.2-3.3c-0.6-1.8-1.9-3-3-4.3c-1.6-1.9-3.2-3.7-4.8-5.6
			c-0.7-0.8-1.5-1.6-2.2-2.4c-0.2-0.3-0.5-0.6-0.6-1c-0.1-0.3-0.1-0.7,0.1-0.9C5.3,23.2,5.7,23,6,23.1c1.2,0.1,2.1,0.7,2.9,1.5
			c1.1,0.9,2.4,1.7,3.4,2.8c0.9,0.9,1.6,2,2.3,3c0.3,0.5,0.7,1,1,1.5c0.5,0.9,1,1.8,1.5,2.8c0.3-4.2,1.2-8.3,2.6-12.3
			c-0.8-0.2-1.5-0.3-2.2-0.4c-0.6-0.1-1-0.6-1.2-1.1c-0.4-1.4-0.1-2.8,0.8-4c0.3-0.3,0.5-0.7,0.8-1.1c-0.7,0-1.4-0.1-2-0.1
			c-0.9,0-1.6-0.5-2.3-1c-1-0.7-0.8-2.4,0.3-3.2c1.4-1.2,3-1.4,4.8-1.2c1.5,0.1,2.9,0.7,4.3,1.4c-0.2-0.3-0.3-0.7-0.5-1
			C21.7,9,21,7.4,20.4,5.7c-0.6-1.5-0.4-3,0.6-4.3c0.8-1,3.3-1.8,4.5-1.3c0.7,0.3,1.1,0.9,1.1,1.6c0,1.9-0.1,3.9,0,5.8
			c0,0.9,0.1,1.8,0.2,2.8c0.1,0,0.2,0,0.3,0c0.1-0.3,0.2-0.7,0.2-1C27.2,7.8,27.4,6.4,28,5c0.7-1.6,1.7-2.8,3.3-3.5
			c1-0.4,1.9-0.1,2.8,0.3c0.3,0.1,0.5,0.8,0.4,1.1c-0.3,1.1-0.7,2.2-1.1,3.3c-0.3,0.7-0.7,1.4-1.1,2.2c0.8-0.5,1.5-1,2.3-1.4
			c0.9-0.5,1.8-0.8,2.9-0.5c1.2,0.4,1,0.6,1,1.7c0,0.7-0.2,1.3-0.3,1.9c-0.1,1-0.7,1.6-1.6,2c-0.4,0.2-0.8,0.4-1.3,0.6
			C35.4,12.9,35.4,12.9,35.4,13z M24.8,12.1c0.1-0.2,0.3-0.4,0.3-0.6c0-1-0.1-2-0.1-2.9c0-1.6,0-3.2,0-4.7c0-0.6,0-1.3,0-1.9
			c0-0.2-0.3-0.5-0.3-0.5c-0.9,0.2-1.9,0-2.5,0.9c-0.3,0.6-0.5,1.3-0.5,2c0,1.5,0.7,2.8,1.3,4C23.5,9.7,24.1,10.8,24.8,12.1z
			 M16.3,35.8c-0.3-0.7-0.7-1.5-1-2.2c-0.7-1.3-1.4-2.6-2.1-3.9c0-0.1-0.1-0.2-0.2-0.2c-0.9-0.9-1.8-1.8-2.8-2.6
			C9.1,25.9,8,25,6.8,24.2C6.6,24,6.2,24,5.9,23.9C5.9,24,5.8,24,5.8,24.1C9,28.3,12.8,31.9,16.3,35.8z M30.2,15.8
			c-0.2,0.6-0.3,1.1-0.6,1.3C29,17.7,28.9,18.3,29,19c0,0.5,0.1,1.1,0,1.6c-0.1,0.5,0.3,0.8,0.4,1.2c0.2,0.9,0.9,1.5,1.7,1.9
			c0.6,0.3,0.9,0.1,0.9-0.5c0-2.2,0-4.4-1-6.4C30.8,16.5,30.5,16.2,30.2,15.8z M24.2,16.1c-0.1-0.5-0.1-1-0.2-1.4
			c-1.4,0.2-2.4,0.8-3.4,1.6c-0.4,0.4-0.8,0.9-1.3,1.2c-0.7,0.5-1,1.1-1.2,1.9c-0.1,0.4,0,0.6,0.4,0.5c0.5-0.1,0.9-0.1,1.4-0.2
			c1.9-0.5,3.1-1.9,4.5-3.1C24.7,16.3,24.5,16.1,24.2,16.1z M18.4,40.4c0.2,0,0.2,0,0.3-0.1c1.9-0.4,3.9-0.7,5.7-1.6
			c0.2-0.1,0.3-0.3,0.5-0.4c-0.2-0.2-0.3-0.4-0.5-0.5c-1-0.4-2-0.7-3-1c-0.4-0.1-0.7,0-1,0.3c-0.8,0.8-1.2,1.9-2.1,2.6
			c-0.1,0.1-0.1,0.3-0.1,0.5C18.2,40.3,18.4,40.3,18.4,40.4z M22.4,12.9c-1.2-1-2.6-1.6-4.1-1.7c-1-0.1-1.9,0.1-2.8,0.6
			c-0.8,0.5-1,1.4-0.3,1.7c0.2,0.1,0.5,0.2,0.7,0.1c2.1-0.2,4.2-0.5,6.3-0.7C22.2,13,22.3,12.9,22.4,12.9z M38.2,15.9
			c-1.1-1-4-2.1-6.3-0.7c0.6,1.2,1.6,1.8,2.9,1.9C36.1,17.1,37.3,16.9,38.2,15.9z M26.8,17.8c-0.1,0-0.1-0.1-0.2-0.1
			c-0.4,0.4-1,0.8-1.3,1.3c-0.9,1.4-1.4,3-1.5,4.7c0,0.4,0.1,0.7,0.2,1.1c0.3-0.2,0.7-0.5,1-0.7c0,0,0.1-0.1,0.1-0.1
			c1.1-1.6,1.6-3.4,1.9-5.3C26.9,18.4,26.8,18.1,26.8,17.8z M31.7,12.3c0.1,0,0.1,0.1,0.2,0.1c1.5-0.3,2.9-0.8,4-1.9
			c0.8-0.7,0.8-1.6,0.8-2.6C35.3,8.1,32.2,10.9,31.7,12.3z M23.8,30.1c0,0-0.1-0.1-0.1-0.1c-0.1,0-0.3,0.1-0.4,0.1
			c-1.7,1.2-3.2,2.7-4,4.7c-0.2,0.5-0.2,1-0.3,1.5c0.1,0,0.2,0.1,0.2,0.1C21,34.4,22.7,32.5,23.8,30.1z M32.4,3
			c-2.2,0.6-3.4,4.6-3,6.4C30.5,8.4,32.7,3.8,32.4,3z M27.5,12c-0.2,0.1-0.5,0.2-0.7,0.3c-1.1,0.6-1.6,1.7-1,2.7
			c0.3,0.5,1,0.9,1.5,0.8c0.4-0.1,0.8-1.2,0.5-1.7c0.6-0.6,0.6-0.6,0.1-1.3C27.7,12.7,27.6,12.4,27.5,12z"/>
	</g>
</g>
</svg>
