<?xml version="1.0" encoding="utf-8"?>
<!-- Generator: Adobe Illustrator 23.0.3, SVG Export Plug-In . SVG Version: 6.00 Build 0)  -->
<svg version="1.1" id="Layer_1" xmlns="http://www.w3.org/2000/svg" xmlns:xlink="http://www.w3.org/1999/xlink" x="0px" y="0px"
	 viewBox="0 0 35.3 45.6" style="enable-background:new 0 0 35.3 45.6;" xml:space="preserve">
<g id="Pm74qM.tif">
	<g>
		<path d="M17.4,12.5c0.6-1.3,1.3-2.6,1.3-4c0-0.7-0.2-1.4-0.5-2c-0.5-0.9-1.6-0.7-2.5-0.9c-0.1,0-0.3,0.3-0.3,0.5
			c-0.1,0.6,0,1.3,0,1.9c0,1.6,0.1,3.2,0,4.7c0,1-0.1,2-0.1,2.9c0,0.2,0.2,0.4,0.3,0.6C16.1,14.9,16.8,13.7,17.4,12.5z M33.4,28.2
			c-1.1,0.9-2.3,1.7-3.4,2.6c-1,0.8-1.9,1.7-2.8,2.6c-0.1,0.1-0.1,0.2-0.2,0.2c-0.7,1.3-1.4,2.6-2.1,3.9c-0.4,0.7-0.7,1.4-1.1,2.3
			c0.2,0,0.2,0,0.3-0.1c1.3-1.4,2.5-2.8,3.8-4.2c1.7-1.9,3.4-3.7,5.1-5.6c0.5-0.6,1-1.2,1.5-1.8c-0.1-0.1-0.1-0.2-0.2-0.3
			C34,28,33.7,28,33.4,28.2z M9.3,20.8c-1,2-1,4.2-1,6.4c0,0.7,0.3,0.9,0.9,0.5c0.8-0.4,1.4-1,1.7-1.9c0.1-0.4,0.5-0.7,0.4-1.2
			s-0.1-1.1,0-1.6c0-0.7,0-1.3-0.6-1.9c-0.3-0.2-0.3-0.7-0.6-1.3C9.8,20.2,9.5,20.5,9.3,20.8z M16.1,20.1c-0.4,0.2-0.5,0.4-0.1,0.7
			c1.1,0.8,2.1,1.8,3.3,2.5c0.7,0.4,1.6,0.5,2.4,0.7c0.4,0.1,0.5-0.2,0.4-0.5c-0.2-0.7-0.5-1.4-1.2-1.9c-0.5-0.3-0.9-0.9-1.3-1.3
			c-0.9-0.8-2-1.4-3.3-1.6C16.2,19.1,16.2,19.6,16.1,20.1z M22.6,45.3c-0.5-0.3-0.1-0.9-0.6-1.5s-1.4-1.7-2.1-2.6l-1-1.2
			c-0.1-0.2-0.2-0.4-0.3-0.6c-0.6-0.8-1.2-1.5-1.7-2.3c-0.7-1-1.3-2.1-1.8-3.1c-0.4-0.7-0.1-1,0.7-1c0.1,0,0.2,0,0.3,0.1
			c1.3,0.4,2.4,1.2,3.4,2.1c0.5,0.5,0.9,1,1.4,1.5c-0.2-3.2-0.9-6.1-2.2-8.9c-0.2,0.5-0.3,1-0.4,1.5c-0.2,1.1-1.5,2.1-2.6,1.9
			c-1.2-0.2-2-0.9-2.5-2c-0.3-0.7-0.6-1.3-0.9-1.9c-0.6,0.5-1.2,0.8-1.6,1.3c-0.5,0.5-1,0.8-1.6,1c-1.2,0.4-2.5-0.1-2.6-1.5
			c0-1.1,0.1-2.3,0.1-3.5c0-0.7,0.1-1.3,0.2-2c-0.9,0.1-1.6,0.3-2.4,0.4c-1.3,0.1-2.4-0.3-3.5-1c-1-0.7-1.1-2-0.1-2.8
			c0.6-0.5,1.3-0.9,2-1.2c0.7-0.3,1.4-0.5,2.3-0.9c-0.6-0.3-1-0.5-1.4-0.7c-0.9-0.4-1.5-1.1-1.6-2.1c-0.1-0.8-0.3-1.4-0.4-2.1
			c0-1.1-0.2-1.3,1-1.7c1.1-0.4,2,0,2.9,0.5c0.8,0.4,1.5,0.9,2.4,1.4c-0.4-0.8-0.8-1.5-1.1-2.2C6.5,9.1,6.1,8,5.8,6.9
			c0-0.4,0.2-1,0.4-1.1C7.1,5.5,8,5.1,9,5.5c1.6,0.7,2.7,1.9,3.3,3.5c0.5,1.4,0.6,2.9,0.9,4.3c0.1,0.4,0.1,0.7,0.2,1.1
			c0.1,0,0.2,0,0.3,0c0.1-0.9,0.2-1.9,0.2-2.8c0-1.3-0.1-2.7-0.1-4c0-0.5,0.1-1,0.1-1.5c-0.1-1.2,0.5-1.8,1.6-2
			c1-0.2,1.9,0.3,2.8,0.6c1.8,0.6,2.5,3.2,1.9,4.8c-0.7,1.7-1.3,3.4-2.3,5c-0.2,0.4-0.4,0.7-0.6,1.1c1.4-0.6,2.7-1.2,4.1-1.4
			c1.9-0.2,3.6,0,5.1,1.3c1,0.9,1.1,2.5,0.1,3.2c-0.7,0.5-1.4,0.9-2.3,0.9c-0.6,0-1.2,0.1-1.9,0.1c0.1,0.2,0.2,0.3,0.3,0.4
			c0.9,1,1.5,2.1,1.5,3.4c0,0.8-0.1,1.6-0.8,2.1c-0.6,0.3-1.4,0.5-2.1,0.7c-0.2,0-0.4,0-0.7,0c1.5,4.1,2.4,8.2,2.7,12.4
			c0.5-0.9,1-1.8,1.5-2.7c0.3-0.5,0.6-1,1-1.5c0.8-1,1.4-2.2,2.3-3.1c1-1,2.2-1.8,3.3-2.7c0.9-0.8,1.8-1.4,3-1.5
			c0.3,0,0.7,0.2,0.9,0.4c0.2,0.2,0.2,0.6,0.1,0.9c-0.1,0.3-0.3,0.7-0.6,1c-0.7,0.8-1.5,1.6-2.2,2.4c-1.6,1.9-3.2,3.8-4.8,5.6
			c-1.2,1.3-2.4,2.6-3,4.3c-0.4,1.1-0.2,2.7-0.2,3.3C24.2,45.9,23,45.6,22.6,45.3z M18.2,17c2.1,0.2,4.1,0.5,6.2,0.7
			c0.2,0,0.5,0,0.7-0.1s0.5-0.4,0.5-0.5c-0.2-0.4-0.4-0.9-0.8-1.2C24,15.3,23,15.2,22,15.2c-1.5,0.1-2.9,0.7-4.1,1.7
			C18,17,18.1,17,18.2,17z M5.5,21.1c1.4-0.1,2.3-0.6,2.9-1.9c-2.2-1.5-5.1-0.3-6.3,0.7C3,20.9,4.1,21.2,5.5,21.1z M15,22.9
			c-0.3-0.4-0.7-0.7-1.1-1c-0.1-0.1-0.4,0.1-0.4,0.1c-0.1,0.3-0.1,0.6,0,0.9c0.3,1.3,0.7,2.6,1.1,3.8c0.2,0.6,0.7,1.2,1.1,1.7
			c0.1,0.2,0.5,0.2,0.7,0.3c0.1-0.2,0.2-0.5,0.2-0.6C16.5,26.2,16,24.5,15,22.9z M3.7,12c-0.3,1,0.1,2.1,1.1,2.9
			c1,0.8,2.2,1.1,3.4,1.5c0.1,0,0.2,0,0.4,0C8,14.8,5,12.2,3.7,12z M20.9,38.7c-0.8-1.9-2.2-3.3-3.8-4.5c-0.1-0.1-0.3-0.1-0.6-0.2
			c1.1,2.4,2.8,4.4,4.6,6.4C21.4,39.8,21.1,39.2,20.9,38.7z M7.8,7c-0.2,0.8,1.9,5.4,3,6.4C11.1,11.1,9.9,7.6,7.8,7z M12.4,16.9
			c-0.5,0.7-0.5,0.6,0.1,1.3c-0.3,0.5,0.1,1.6,0.5,1.7c0.5,0.1,1.2-0.3,1.5-0.8c0.6-1.1,0.1-2.1-1-2.7c-0.2-0.1-0.5-0.2-0.7-0.3
			C12.7,16.4,12.6,16.7,12.4,16.9z"/>
	</g>
</g>
</svg>
