<?xml version="1.0" encoding="utf-8"?>
<!-- Generator: Adobe Illustrator 23.0.3, SVG Export Plug-In . SVG Version: 6.00 Build 0)  -->
<svg version="1.1" id="Layer_1" xmlns="http://www.w3.org/2000/svg" xmlns:xlink="http://www.w3.org/1999/xlink" x="0px" y="0px"
	 viewBox="0 0 101.2 80.2" style="enable-background:new 0 0 101.2 80.2;" xml:space="preserve">
<g>
	<path d="M101.2,56.3c-0.1,0.5-0.2,1-0.2,1.4c-0.1,0.6-0.2,1.3-0.3,1.9c0,0.1,0,0.3,0,0.4c-0.1,0.6-0.1,1.3-0.2,1.9
		c-0.1,0.9-0.7,1.7-0.4,2.7c0,0.1,0,0.2,0,0.2c-0.3,1.1-0.6,2.1-0.9,3.2c-0.1,0.3-0.5,0.6-0.9,0.8c-0.6,0.2-1.3,0.4-2,0.4
		c-1.2,0.1-2.3,0-3.5,0c-0.5,0-0.9,0.1-1.4,0.2c-1.5,0.2-3,0.4-4.5,0.5c-1.3,0.1-2.6,0.2-3.8,0.4c-1.3,0.2-2.7,0.3-4,0.4
		c-0.2,0-0.5,0.2-0.5,0.4c-0.1,1.5-1,2.3-2.1,3.1c-1.8,1.3-3.9,1.8-5.8,2.8c-1.2,0.6-2.4,0.2-3.6,0c-0.8-0.1-1.6-0.5-2.3-0.8
		c-2.1-0.9-2.9-2.7-3.7-4.6c-0.1-0.2-0.3-0.4-0.5-0.4c-0.6,0-1.1,0.1-1.7,0.2c-2,0.6-4.2,0.5-6.2,0.6c-2.1,0.1-4.2,0.3-6.2,0.4
		c-0.7,0-1.4,0-2.1,0.1c-1.7,0-3.4,0.1-5.1,0.1c-0.8,0-1.6-0.1-2.3-0.6c-0.4-0.3-0.5-0.8-0.4-1.3s0.5-0.5,0.8-0.5
		c1.3-0.1,2.6-0.2,3.9-0.2c2.1-0.1,4.1-0.2,6.2-0.3c3.2-0.1,6.3-0.2,9.5-0.3c1.1,0,2.3-0.1,3.4-0.1c0.1,0,0.3-0.1,0.3-0.1
		c0.1-0.5,0.2-1.1,0.3-1.6s0.3-1.1,0.5-1.6c0.9-2.2,2.3-3.8,4.4-4.9c1.5-0.8,3.1-1.5,4.8-0.8c0.5,0.2,0.9,0.3,1.4,0.3
		c0.4,0,0.8,0.1,1.1,0.3c0.9,0.6,1.9,1.1,2.7,1.9c1.5,1.4,2.6,3.1,2.8,5.2c0,0.5,0.1,0.7,0.7,0.6c2.9-0.3,5.8-0.5,8.7-0.8
		c1.5-0.2,3-0.5,4.5-0.7c0.9-0.1,1.7-0.1,2.6-0.2c0.4,0,0.8-0.1,1.1-0.1c1-0.2,1.1-0.3,1-1.5c-0.5,0.1-1,0.2-1.5,0.2
		c-0.6,0-1.2,0.1-1.8,0c-1-0.2-1.4-1-1.5-2c-0.1-1.3-0.1-2.6,0.3-3.9c0-0.1,0.2-0.3,0.3-0.4c1.2-0.7,2.5-0.7,3.8-0.7
		c1,0.1,1.2-0.1,1.2-1.1C98,55.8,98,54.4,98,53c-0.1-1.5-0.2-2.9-0.2-4.3c0-0.7,0-1.4-0.1-2c-0.2-1.1-0.4-2.3-0.6-3.4
		c-0.1-0.4-0.4-0.5-0.7-0.3c-1.1,0.7-2.3,0.9-3.5,1.2c-1.3,0.3-2.7,0.5-4.1,0.7c-1,0.1-2.1,0.1-3.1,0.2c-0.8,0.1-1.7,0.3-2.5,0.4
		c-1,0.1-1.9,0.4-2.9,0h-0.1c-1.3,0.6-2.6,0.3-3.9,0.1c-1.4-0.1-2.7-0.5-4.1-0.6c-1.1-0.1-1.7-0.9-2.3-1.5c-1-1.1-1.2-2.5-1.3-3.9
		c-0.1-1.6-0.3-3.1-0.4-4.7c-0.2-1.7-0.3-3.5-0.5-5.2c-0.1-1-0.4-2-0.6-2.9c-0.1-0.6-0.2-1.2-0.3-1.7c-0.3-1.1-0.5-2.1-0.6-3
		c0-0.2,0.1-0.5,0.3-0.6c0.1-0.1,0.4-0.1,0.6,0c0.8,0.2,1.3,0.8,1.6,1.5c0.4,0.8,0.7,1.5,0.9,2.4c0.3,1.2,0.6,2.4,0.8,3.6
		c0.2,1.1,0.4,2.2,0.5,3.3C71,33.1,71,34.1,71,35c0.1,0.9,0.2,1.7,0.3,2.6c0.1,1.3,0.2,2.6,0.3,3.9c0,0.5,0.3,0.7,0.7,0.8
		c2.2,0.4,4.4,0.4,6.6,0.2c2.5-0.1,4.9-0.5,7.4-0.5c2.8,0,5.6,0.4,8.4,0.6c0.7,0,1.3,0.1,2.2,0.1c-0.3-0.5-0.6-0.9-0.8-1.3
		c-1.3-1.9-2.7-3.8-4-5.6c-0.6-0.8-1.2-1.6-1.9-2.4c-1-1.2-2.2-2.3-3.2-3.5c-1.1-1.2-2.2-2.3-3.1-3.6c-1-1.5-2.3-2.6-3.7-3.8
		c-0.3-0.2-0.6-0.3-0.9-0.5c-1-0.6-2-1.3-3.1-1.8c-0.5-0.3-1.2-0.2-1.7-0.1c-1.1,0.2-2.3,0.4-3.4,0.6c-0.8,0.1-1.6,0.3-2.4,0.3
		c-1,0.1-2.1,0.1-3.2,0.2c-1.3,0.1-2.6,0.3-4,0.4c-0.3,0-0.5,0-0.8,0c-1.5-0.1-3.1-0.3-4.6,0c-0.7,0.1-1.4,0-2.1-0.1
		c-0.9-0.1-1.7-0.1-2.6,0.1c-0.9,0.2-1.8,0.2-2.7,0.2c-1.5,0-3.1,0-4.6,0c-2,0-3.9,0.1-5.9,0c-1.2-0.1-2.3,0.1-3.5,0
		c-0.6,0-1.3,0.1-2,0.2c-0.8,0.1-1.6,0.1-2.4,0.2c-0.9,0.1-1.8,0.2-2.8,0.3h-0.1c-1.3,1-2.9,0.7-4.3,1c-1.7,0.4-3.5,0.6-5.3,0.8
		c0.2,0.7,0.4,1.2,0.7,1.7c0.1,0.2,0.5,0.2,0.7,0.3c0.4,0.1,0.8,0.1,1.3,0.2c0.3,0,0.6,0,0.9,0.1c1.6,0.2,2.8,1,3.5,2.3
		c0.2,0.4,0.1,1.1,0.1,1.7c0,0.2-0.1,0.3-0.1,0.5c-0.4,1.5-0.8,1.5-2.1,1.8c-1.1,0.2-2.2,0.4-3.5,0.6c0.4,0.2,0.7,0.3,0.9,0.5
		c0.9,0.6,1.7,1.1,2.5,1.8c0.4,0.3,0.6,0.8,0.8,1.2c0.8,1.7-0.3,4-2.2,4.2c-1.2,0.1-2.5-0.1-3.5-1c-0.1-0.1-0.2-0.1-0.3-0.2
		c0,0.3,0,0.5,0,0.7c0,1.2,0.1,2.4-0.2,3.6c-0.2,1-0.7,2-1.7,2.7c-1.2,0.9-3.2,0.5-4-0.9C11,45,10.6,44,10,43
		c-0.2,0.4-0.4,0.9-0.5,1.4c-0.3,0.9-0.8,1.6-1.6,2c-0.2,0.1-0.6,0-0.9-0.1c-0.3-0.1-0.5-0.2-0.9-0.4c0.1,2,0.2,3.9,0.3,5.8
		c0.3,4.2,1.1,8.3,0.9,12.5c-0.1,0.9-0.2,1.8-0.1,2.7c0,0.6,0.1,1.2,0.4,1.8s0.9,0.8,1.5,0.9c1.6,0.4,3.3,0.4,5,0.3
		c1.4-0.1,2.7-0.2,4.1-0.3c0.2,0,0.5,0.1,0.7,0.1c0.3-0.7,0.6-1.4,1-2c1.1-2,2.5-3.6,4.6-4.7c1.7-0.9,3.3-0.7,4.9,0.2
		c0.6,0.3,1.1,0.6,1.4,1.3c0.1,0.3,0.7,0.5,1,0.7c1.8,0.8,3.1,2.1,3.6,3.9c0.3,1,0.8,2.1,0.5,3.2c-0.1,0.3-0.1,0.6-0.3,0.8
		c-0.9,1-1.1,2.4-1.9,3.6c-1.3,1.8-3.3,2.6-5.1,3.4c-2.4,1-4.8,0.3-6.8-1.5c-0.7-0.6-1.3-1.3-1.9-2c-0.1-0.1-0.2-0.4-0.2-0.6
		c-0.4-1.1-1.1-2.1-1.1-3.3c0-0.7,0-1.4,0-2.2c-0.5,0.2-1.1,0.3-1.6,0.5c-0.8,0.3-1.7,0.6-2.5,0.8c-0.4,0.1-0.8,0.3-1.2,0.4
		c-1.4,0.4-2.8,0.4-4.2,0C8,71.9,7,71.5,6.5,70.4c-0.2-0.4-0.2-0.8-0.3-1.2c-0.9,0.1-1.7,0.2-2.5,0.3c-0.4,0-0.9,0-1.3,0
		s-0.8,0.1-1.2,0.1c-0.2,0-0.5-0.1-0.6-0.2C0.4,69,0.1,68.5,0,68.1c-0.1-0.9,0-1.8,0-2.7c0-0.5,0.3-1,0.9-1c1.3-0.1,2.7-0.3,4-0.3
		c0.8,0,0.9-0.1,0.9-0.9c-0.1-1.8,0-3.6-0.3-5.3c-0.5-2.5-0.6-5-0.7-7.5c-0.1-2.9-0.2-5.9-0.2-8.8c0-3.1,0.2-6.3,0.4-9.4
		c0.1-1.7,0.5-3.3,0.9-4.9C6.2,26,6.5,25,7,24.2c0.8-1.5,2.3-2.2,4-2.5c0.7-0.1,1.3-0.3,2-0.4c1.4-0.2,2.8-0.3,4.2-0.5
		c2.8-0.3,5.7-0.8,8.6-1.2c2.2-0.3,4.5-0.4,6.7-0.6c1.4-0.1,2.9-0.3,4.3-0.3c2.7-0.1,5.3-0.1,8-0.1c2.2-0.1,4.5-0.2,6.7-0.3
		c1.8-0.1,3.6,0,5.3,0c2.2,0,4.4,0,6.6,0c2.1,0,4.3,0,6.4,0c1.5,0,3.1-0.1,4.6-0.2c1.3,0,2.6,0.2,3.8,0.8c1.4,0.7,2.7,1.6,3.8,2.7
		c0.1,0.1,0.2,0.1,0.2,0.2c1.2,0.9,2.2,2,3.1,3.2c0.9,1.2,1.9,2.2,2.9,3.3c1.2,1.4,2.4,2.7,3.6,4.1c0.8,0.9,1.4,1.9,2.1,2.9
		c0.7,0.9,1.4,1.7,2,2.6c0.4,0.5,0.6,1.1,0.9,1.6c0.7,1,1.5,1.9,2.1,2.9c1,1.7,1.4,3.6,1.6,5.6c0.1,1,0.3,2,0.3,3
		c0.1,1.4,0,2.7,0.1,4.1c0,0.4,0.1,0.7,0.1,1.1C101.2,56.2,101.2,56.2,101.2,56.3z M67.6,73.9c0.8-0.1,1.6-0.3,2.5-0.4
		c1.9-0.3,3.6-0.9,5-2.3c0.2-0.2,0.3-0.5,0.3-0.8c0-0.6,0.2-0.9,0.5-1.4c0.1-0.2,0.3-0.4,0.3-0.7c-0.1-2.1-0.3-4.1-2.5-5.3
		c-0.7-0.4-1.2-1.1-2.2-0.9c-0.4,0.1-0.8-0.1-1.2,0c-0.8,0.2-1.6,0.5-2.4,0.9c-1.5,0.7-2.7,1.7-3.4,3.2c-0.6,1.4-1,2.9-1.2,4.4
		c-0.1,0.8,0.2,1.7,0.9,2.1C65.1,73.6,66.3,73.8,67.6,73.9z M21.5,73.2c0.2,1,0.4,1.7,0.9,2.3c0.8,0.9,2,1.2,3.1,1
		c1-0.1,2-0.4,3-0.7c1.1-0.3,2.2-0.8,2.9-1.8c0.5-0.7,0.8-1.5,1.3-2.1c0.5-0.8,0.9-1.6,0.7-2.6c-0.2-1.3-0.7-2.4-1.8-3.1
		c-0.7-0.5-1.5-0.9-2-1.7c-0.3-0.5-0.9-0.6-1.5-0.3c-0.2,0.1-0.4,0.2-0.6,0.2c-1,0.1-1.9,0.6-2.5,1.5c-0.1,0.1-0.1,0.2-0.2,0.3
		c-1.3,1-2,2.3-2.5,3.8C22,71.2,21.8,72.3,21.5,73.2z M15.3,32c0.6-0.1,1-0.1,1.4-0.2c1.5-0.2,3-0.3,4.5-0.5
		c0.7-0.1,1.2-0.4,1.3-1.1c0.2-0.7-0.1-1.2-0.6-1.7c-0.7-0.8-1.7-0.9-2.7-1.1c-0.5-0.1-1,0.1-1.3,0.7c-0.3,0.7-0.8,1.3-1.5,1.6
		c-0.2,0.1-0.4,0.2-0.5,0.4c-0.3,0.3-0.6,0.6-0.8,0.9c-0.2,0.2-0.4,0.6-0.4,0.7C14.9,31.8,15.2,31.9,15.3,32z M14.7,41.8
		c-0.1,0-0.1,0-0.2,0c0.2-2-0.4-3.7-1.4-5.4C13,36.2,12.7,36,12.6,36c-0.4,0.1-1,0.3-1.2,0.6c-0.2,0.4-0.2,0.9-0.1,1.4
		c0.1,1.2,0,2.4,0.4,3.5c0,0,0,0,0,0.1c0.1,1.1,0.5,2.2,1,3.1c0.4,0.7,1,0.7,1.3-0.1C14.4,43.7,14.5,42.8,14.7,41.8z M20.9,37.9
		c0-0.8-0.2-1.3-0.7-1.7c-1.5-1.2-3.1-2.1-4.9-2.6c-0.2,0-0.5,0-0.6,0.1c-0.2,0.3-0.5,0.6-0.2,0.9c0.7,0.8,1.4,1.6,2.2,2.3
		c0.7,0.7,1.5,1.4,2.3,2.1c0.6,0.6,1.4,0.2,1.7-0.3C20.9,38.4,20.9,38.1,20.9,37.9z M8.5,33.2C8.7,33.5,8.8,33.9,9,34
		c0.3,0.1,0.4,0.2,0.5,0.5c0.1,0.5,0.4,0.5,0.8,0.2c0.1-0.1,0.3-0.2,0.4-0.2c0.5,0.3,0.9-0.2,1.3-0.3c0.5-0.2,1.2-1.3,1.1-1.7
		c-0.1-0.6-0.3-1.2-0.5-1.8c-0.2-0.5-0.6-0.7-1.1-0.6c-0.2,0.1-0.5,0-0.7,0c-0.1,0-0.3,0-0.4,0.1C9.5,31.1,8.8,31.9,8.5,33.2z
		 M8.9,36.5c-0.3,0.3-0.6,0.5-0.7,0.8c-0.3,0.7-0.6,1.4-0.8,2.2C7.2,40.3,7,41.2,6.8,42c-0.1,0.6-0.1,1.3,0,2c0,0.2,0.2,0.4,0.3,0.6
		c0.2-0.1,0.4-0.3,0.5-0.4c0.3-0.5,0.5-1,0.8-1.6c1-1.9,1.5-3.9,1.3-6.1c0-0.1-0.2-0.3-0.3-0.4c-0.1,0.1-0.3,0.2-0.4,0.4
		C8.9,36.5,8.9,36.6,8.9,36.5z M97.7,61.1c0-0.8,0-0.8-0.8-0.7c-0.1,0-0.2,0-0.3,0c-0.5,0-1.1,0-1.6,0.1c-0.6,0.1-0.9,0.5-0.9,1.2
		c0,0.4,0,0.9,0,1.3c0,0.4,0.1,0.6,0.5,0.6c0.7-0.1,1.4-0.2,2.1-0.3c0.6-0.1,0.9-0.3,0.9-1C97.6,61.9,97.7,61.5,97.7,61.1z
		 M12.7,29.2c0.1,0,0.1,0,0.2-0.1c0.9-1.1,1.8-2.1,3.2-2.6c0.2-0.1,0.4-0.7,0.4-1.1c0-0.4-0.7-0.8-1-0.6c-0.7,0.4-1.5,0.7-1.9,1.3
		c-0.5,0.8-0.7,1.8-1,2.7C12.6,29,12.7,29.1,12.7,29.2z M11.5,25.2c-0.1,0-0.3,0-0.4,0c-0.5,0-1,0-1.5,0S9,25.4,9.1,25.9
		c0.2,0.8,0.3,1.7,0.5,2.5c0,0.2,0.2,0.4,0.3,0.6c0.2-0.2,0.4-0.3,0.5-0.6c0.2-0.4,0.2-0.9,0.4-1.3C11,26.5,11.3,25.8,11.5,25.2z
		 M5.7,65.5c-0.1,0-0.1,0-0.2,0c-1.1,0.1-2.1,0.2-3.2,0.3c-0.5,0-0.6,0.3-0.6,0.8c1,0,2.1,0,3.1,0C5.9,66.6,5.9,66.6,5.7,65.5z
		 M6.2,36.4c0.1,0,0.1,0,0.2,0c0.4-0.5,0.8-1,1.2-1.6c0.1-0.1,0-0.4,0-0.6c-0.1-0.4-0.2-0.8-0.4-1.2c-0.1-0.3-0.3-0.7-0.5-1
		c-0.1,0-0.2,0-0.2,0.1C6.4,33.5,6.3,35,6.2,36.4z M7.6,31.1c0.2-0.4,0.7-0.9,0.6-1.3c-0.1-0.8-0.5-1.5-0.7-2.3c-0.1,0-0.1,0-0.2,0
		c-0.2,0.9-0.4,1.8-0.6,2.8c0,0.1,0.1,0.2,0.1,0.3C7,30.8,7.3,30.9,7.6,31.1z"/>
	<path d="M44.4,60.6c-0.2,0.7-0.3,1.2-0.5,1.8c-0.3,1.1-0.7,2.1-1.9,2.6c-1.7,0.8-3-0.1-3.9-1.6c-1-1.7-1-3.5-0.8-5.5
		c-0.4,0.3-0.6,0.5-0.9,0.7c-0.7,0.7-1.4,1.6-2.2,2.2c-1.1,0.8-2.8,1.4-4.1,0.2c-0.3-0.3-0.7-0.5-0.8-0.8c-0.3-1.1-0.9-2-0.5-3.3
		c0.7-1.9,1.8-3.4,3.4-4.6c0.2-0.2,0.5-0.4,0.7-0.6c0-0.1,0-0.1-0.1-0.2c-0.5,0.1-1.1,0.1-1.6,0.2c-0.1,0-0.3,0.1-0.4,0.1
		c-1.6-0.1-3.2-0.2-4.5-1.4c-0.7-0.6-1.2-1.1-1.4-2c-0.2-0.8,0.1-1.5,0.5-2c1-1.4,2.3-2.3,4.2-2.3c1.3,0,2.7,0,4.1,0
		c-0.3-0.4-0.7-0.9-1-1.3c-1.7-2.2-3-4.5-2.5-7.4c0.3-2,1.1-2.2,2.9-1.4c1.5,0.7,2.9,1.6,4.3,2.5c0.8,0.6,1.4,1.5,2.1,2.3
		c0.2,0.2,0.4,0.5,0.7,0.7c0-0.3,0.1-0.5,0.1-0.8c0.5-1.7,0.8-3.5,1.5-5.2c0.6-1.5,1.7-2.7,3.5-2.9c0.7,0,1.5,0.1,2.2,0.3
		c0.8,0.3,0.9,1.2,1,1.9c0.1,1.2,0,2.5,0,3.8c0.5-0.3,1-0.6,1.5-0.8c0.8-0.3,1.6-0.7,2.5-0.9c0.5-0.1,1.2,0.1,1.7,0.4
		c0.8,0.6,1.6,1.3,2.2,2c0.7,1,0.5,2.1,0.1,3.2c-0.4,1-1.2,1.7-2,2.4c-1,0.9-1.9,1.9-2.9,2.8c0.1,0,0.3,0.1,0.4,0.1
		c1.5-0.1,2.9,0.5,4.2,1.2c0.8,0.4,1.5,1.2,2.1,1.9c0.4,0.4,0.7,1,0.8,1.6c0.2,0.9-0.3,1.7-1.3,2c-1.9,0.6-3.9,0.6-5.8,0.3
		c-1.2-0.2-2.4-0.2-3.7-0.4c0.2,0.3,0.2,0.5,0.3,0.6c1.4,1.3,1.9,3,2.4,4.8c0.3,1.2,0.3,2.4-0.1,3.6c-0.3,1.1-1.7,1.7-2.8,1.2
		c-0.4-0.2-0.9-0.2-1.3-0.4c-0.7-0.4-1.2-1-1.8-1.5C44.7,61,44.6,60.8,44.4,60.6z M32.3,35.9c-0.1,1.3-0.5,2.4,0.1,3.5
		c0.4,0.7,0.6,1.6,1.1,2.2c1.2,1.8,2.9,3.2,4.6,4.6c0.2,0.1,0.4,0.2,0.6,0.4c0.3-0.5,0.7-1,0.8-1.4c0.1-0.6,0.1-1.4-0.1-2
		c-0.3-1-0.7-1.9-1-2.9C37.8,39,37,38,35.6,37.6c-0.3-0.1-0.5-0.3-0.8-0.4C34.1,36.7,33.3,36.4,32.3,35.9z M45.6,46.4
		c0.2,0,0.3,0,0.4-0.1c2-1,4.1-2,5.6-3.7c1.1-1.2,2-2.4,3-3.6c0.2-0.2,0.2-0.8,0-1s-0.7-0.4-1-0.4c-1.5,0.2-2.8,0.6-4.1,1.5
		c-1.1,0.8-2.2,1.7-2.7,3C46.3,43.5,45.5,44.8,45.6,46.4z M45.5,52.1c-0.5,0.2-0.6,0.7-0.4,1c0.5,0.7,0.2,1.2,0,1.8
		c-0.3,1.1-0.6,2.1,0.1,3.2c0.3,0.5,0.6,1,0.8,1.6c0.4,0.7,1.1,1.1,1.9,0.9c0.1,0,0.3-0.2,0.4-0.3c0.4-0.8,0.6-1.7,0.2-2.6
		c-0.2-0.5-0.3-1.1-0.4-1.7c-0.1-0.4-0.1-0.8-0.3-1.1C47,54,46.3,53.1,45.5,52.1z M37.2,48.2c0-0.1,0-0.2,0-0.3
		c-0.5-0.2-1-0.4-1.6-0.5c-0.9-0.2-1.8-0.4-2.7-0.6c-0.5-0.1-1-0.1-1.6-0.2c-0.2,0-0.3,0-0.5,0.1c-0.3,0.1-0.7,0.2-1,0.3
		c-0.8,0.3-1.8,0.3-2.4,1.1c-0.3,0.3-0.3,0.7,0.1,0.8c0.7,0.2,1.5,0.5,2.3,0.4c1.7-0.1,3.4-0.3,5.2-0.5
		C35.8,48.7,36.5,48.4,37.2,48.2z M46,32.5c-1.3,0.7-1.9,1.7-2.2,2.8c-0.4,1.4-0.6,2.9-0.8,4.3c-0.1,0.9-0.1,1.8-0.1,2.7
		c0,0.1,0.1,0.2,0.2,0.4c0.2-0.3,0.4-0.5,0.5-0.7c0.7-1.7,1.5-3.4,2.1-5.1c0.4-1.1,0.4-2.2,0.6-3.3C46.3,33.3,46.1,32.9,46,32.5z
		 M31.2,59.1c0.4-0.1,0.7-0.1,1-0.2c0.8-0.5,1.8-1,2.4-1.7c1.2-1.4,2.3-2.9,3.4-4.4c0.5-0.6,0.4-1.3,0-2.2c0,0.2,0,0.3,0,0.3
		c0.2,0.6,0,1-0.6,1.4c-0.8,0.5-1.6,1-2.2,1.6c-0.7,0.8-1.5,1.6-2.4,2.2C31.9,56.8,31.4,57.8,31.2,59.1z M41.7,46.5
		c-0.1,0.2-0.1,0.4-0.1,0.6c0.1,0.6-0.2,0.8-0.7,0.8c-0.1,0-0.3,0.3-0.3,0.4c-0.1,0.7-0.2,1.3-0.2,2c0,0.8,0,1.6,0.8,2.2
		c0.1,0.1,0.4,0.2,0.5,0.1c0.6-0.3,1.2-0.7,1.5-1.4c-0.5-0.6-0.5-0.6,0.3-1.6c-0.1-0.5-0.4-1-0.4-1.4C43.2,47.1,42.7,46.9,41.7,46.5
		z M46.8,50.1c0,0.1,0,0.2,0,0.3c0.7,0.1,1.5,0.2,2.2,0.3c1.5,0.1,3.1,0.2,4.6,0.2c1,0,2-0.3,3-0.9c-0.6-0.2-1.1-0.4-1.5-0.6
		c-0.6-0.2-1.2-0.3-1.8-0.3s-1.1,0.3-1.7,0.4c-1.1,0.1-2.1,0.2-3.2,0.3C47.8,49.8,47.3,49.9,46.8,50.1z M41.7,55.2
		c-1.2,0.3-2.6,6.2-1.2,7.6C42,60.4,41.9,57.8,41.7,55.2z"/>
	<path d="M74.1,68.2c-0.2,1.3-0.5,2.2-1.4,3.2c-1.2,1.4-2.6,1.8-4.2,1.8c-1.8,0-3.2-0.9-3.6-2.4c-0.3-1.1-0.1-2.3,0.5-3.3
		c0.3-0.4,0.5-0.9,0.8-1.2c0.6-0.7,1.2-1.4,1.9-1.8c1.2-0.7,2.5-0.2,3.6,0.5c0.6,0.4,1.2,0.9,1.6,1.5C73.8,67,73.9,67.6,74.1,68.2z
		 M72.1,67.7c0.1,0,0.1,0,0.2-0.1c-0.3-0.6-0.5-1.2-0.8-1.8c-0.1-0.1-0.7,0.1-1.1,0.2c-0.8,0.2-1.5,0.7-1.9,1.4
		c-0.5,0.8-1,1.5-1.4,2.3c-0.4,0.8-0.2,1.2,0.7,1.3c1.2,0.1,2.2-0.2,3-1.1C71.3,69.3,72.2,68.9,72.1,67.7z"/>
	<path d="M31.2,69.4c0.2,1.1-0.4,2-0.9,2.9c-0.6,1-1.4,1.7-2.2,2.4c-1,0.9-2.3,1.1-3.6,0.8c-0.7-0.1-1.5-1.4-1.5-2.2
		c-0.1-1.6,0.6-3,1.3-4.4c0.6-1.2,1.6-1.9,2.7-2.5c0.2-0.1,0.4-0.1,0.6-0.1c0.5,0,1,0,1.5,0c0.1,0,0.2,0,0.2,0.1
		C30.1,66.7,31.4,68.4,31.2,69.4z M25.1,73.4c0.5-0.2,0.8-0.3,1.1-0.4c1.1-0.6,1.8-1.6,2.5-2.6s0.6-2,0-2.7
		C26.6,69,25.7,71,25.1,73.4z"/>
</g>
</svg>
